<mxfile host="app.diagrams.net" modified="2020-12-30T19:06:44.374Z" agent="5.0 (X11)" etag="92phvtN_wnm6iXQFXpoV" version="14.1.4" type="github" pages="2">
  <diagram name="keep(z=&gt;&quot;z&quot;).x" id="u09ic5EeUXiOAb8ldGBu">
    <mxGraphModel dx="2018" dy="1253" grid="1" gridSize="10" guides="1" tooltips="1" connect="1" arrows="1" fold="1" page="1" pageScale="1" pageWidth="2339" pageHeight="3300" math="0" shadow="0">
      <root>
        <mxCell id="50ZPBAp9W2moqsCLIOhF-0" />
        <mxCell id="50ZPBAp9W2moqsCLIOhF-1" parent="50ZPBAp9W2moqsCLIOhF-0" />
        <mxCell id="50ZPBAp9W2moqsCLIOhF-3" style="edgeStyle=orthogonalEdgeStyle;rounded=0;orthogonalLoop=1;jettySize=auto;html=1;dashed=1;dashPattern=1 2;entryX=0;entryY=0.5;entryDx=0;entryDy=0;" parent="50ZPBAp9W2moqsCLIOhF-1" source="50ZPBAp9W2moqsCLIOhF-4" target="50ZPBAp9W2moqsCLIOhF-9" edge="1">
          <mxGeometry relative="1" as="geometry">
            <mxPoint x="380" y="300" as="targetPoint" />
          </mxGeometry>
        </mxCell>
        <mxCell id="50ZPBAp9W2moqsCLIOhF-4" value="" style="ellipse;whiteSpace=wrap;html=1;aspect=fixed;rounded=1;shadow=0;glass=0;sketch=0;align=left;fillColor=#d5e8d4;strokeColor=#82b366;" parent="50ZPBAp9W2moqsCLIOhF-1" vertex="1">
          <mxGeometry x="260.0000000000001" y="240" width="40" height="40" as="geometry" />
        </mxCell>
        <mxCell id="50ZPBAp9W2moqsCLIOhF-5" style="edgeStyle=orthogonalEdgeStyle;rounded=0;orthogonalLoop=1;jettySize=auto;html=1;entryX=0;entryY=0.5;entryDx=0;entryDy=0;dashed=1;dashPattern=1 2;" parent="50ZPBAp9W2moqsCLIOhF-1" source="50ZPBAp9W2moqsCLIOhF-6" target="50ZPBAp9W2moqsCLIOhF-7" edge="1">
          <mxGeometry relative="1" as="geometry" />
        </mxCell>
        <mxCell id="50ZPBAp9W2moqsCLIOhF-6" value="TupleOf&lt;br&gt;[:x]" style="ellipse;whiteSpace=wrap;html=1;fillColor=#b0e3e6;strokeColor=#0e8088;" parent="50ZPBAp9W2moqsCLIOhF-1" vertex="1">
          <mxGeometry x="920.0000000000001" y="240" width="80" height="40" as="geometry" />
        </mxCell>
        <mxCell id="50ZPBAp9W2moqsCLIOhF-216" style="edgeStyle=orthogonalEdgeStyle;rounded=0;orthogonalLoop=1;jettySize=auto;html=1;entryX=0;entryY=0.5;entryDx=0;entryDy=0;dashed=1;dashPattern=1 2;" parent="50ZPBAp9W2moqsCLIOhF-1" source="50ZPBAp9W2moqsCLIOhF-7" target="50ZPBAp9W2moqsCLIOhF-213" edge="1">
          <mxGeometry relative="1" as="geometry" />
        </mxCell>
        <mxCell id="50ZPBAp9W2moqsCLIOhF-7" value="BlockOf&lt;br&gt;x0toN" style="ellipse;whiteSpace=wrap;html=1;fillColor=#b0e3e6;strokeColor=#0e8088;" parent="50ZPBAp9W2moqsCLIOhF-1" vertex="1">
          <mxGeometry x="1040" y="240" width="80" height="40" as="geometry" />
        </mxCell>
        <mxCell id="50ZPBAp9W2moqsCLIOhF-8" style="edgeStyle=orthogonalEdgeStyle;rounded=0;orthogonalLoop=1;jettySize=auto;html=1;entryX=0;entryY=0.5;entryDx=0;entryDy=0;dashed=1;dashPattern=1 2;" parent="50ZPBAp9W2moqsCLIOhF-1" source="50ZPBAp9W2moqsCLIOhF-9" target="50ZPBAp9W2moqsCLIOhF-6" edge="1">
          <mxGeometry relative="1" as="geometry" />
        </mxCell>
        <mxCell id="50ZPBAp9W2moqsCLIOhF-9" value="BlockOf&lt;br&gt;x1to1" style="ellipse;whiteSpace=wrap;html=1;fillColor=#b0e3e6;strokeColor=#0e8088;" parent="50ZPBAp9W2moqsCLIOhF-1" vertex="1">
          <mxGeometry x="800.0000000000001" y="240" width="80" height="40" as="geometry" />
        </mxCell>
        <mxCell id="50ZPBAp9W2moqsCLIOhF-10" style="edgeStyle=orthogonalEdgeStyle;rounded=0;orthogonalLoop=1;jettySize=auto;html=1;entryX=0;entryY=0.5;entryDx=0;entryDy=0;dashed=1;dashPattern=1 2;" parent="50ZPBAp9W2moqsCLIOhF-1" source="50ZPBAp9W2moqsCLIOhF-12" target="50ZPBAp9W2moqsCLIOhF-17" edge="1">
          <mxGeometry relative="1" as="geometry" />
        </mxCell>
        <mxCell id="50ZPBAp9W2moqsCLIOhF-11" style="edgeStyle=orthogonalEdgeStyle;rounded=1;orthogonalLoop=1;jettySize=auto;html=1;entryX=0.5;entryY=1;entryDx=0;entryDy=0;exitX=0.5;exitY=0;exitDx=0;exitDy=0;" parent="50ZPBAp9W2moqsCLIOhF-1" source="50ZPBAp9W2moqsCLIOhF-12" target="50ZPBAp9W2moqsCLIOhF-4" edge="1">
          <mxGeometry relative="1" as="geometry">
            <Array as="points">
              <mxPoint x="200" y="300" />
              <mxPoint x="280" y="300" />
            </Array>
          </mxGeometry>
        </mxCell>
        <mxCell id="50ZPBAp9W2moqsCLIOhF-12" value="head" style="rounded=1;whiteSpace=wrap;html=1;fillColor=#fff2cc;strokeColor=#d6b656;" parent="50ZPBAp9W2moqsCLIOhF-1" vertex="1">
          <mxGeometry x="180.00000000000017" y="320" width="40" height="40" as="geometry" />
        </mxCell>
        <mxCell id="50ZPBAp9W2moqsCLIOhF-13" style="edgeStyle=orthogonalEdgeStyle;rounded=0;orthogonalLoop=1;jettySize=auto;html=1;exitX=1;exitY=0.5;exitDx=0;exitDy=0;entryX=0;entryY=0.5;entryDx=0;entryDy=0;dashed=1;dashPattern=1 2;" parent="50ZPBAp9W2moqsCLIOhF-1" source="50ZPBAp9W2moqsCLIOhF-15" target="rJ4HG2NPKZ0k5CCJqCSB-4" edge="1">
          <mxGeometry relative="1" as="geometry">
            <mxPoint x="800" y="420" as="targetPoint" />
          </mxGeometry>
        </mxCell>
        <mxCell id="50ZPBAp9W2moqsCLIOhF-14" style="edgeStyle=orthogonalEdgeStyle;rounded=1;orthogonalLoop=1;jettySize=auto;html=1;entryX=0.5;entryY=1;entryDx=0;entryDy=0;" parent="50ZPBAp9W2moqsCLIOhF-1" source="50ZPBAp9W2moqsCLIOhF-15" target="50ZPBAp9W2moqsCLIOhF-4" edge="1">
          <mxGeometry relative="1" as="geometry">
            <Array as="points">
              <mxPoint x="360" y="300" />
              <mxPoint x="280" y="300" />
            </Array>
          </mxGeometry>
        </mxCell>
        <mxCell id="50ZPBAp9W2moqsCLIOhF-15" value="1" style="rounded=1;whiteSpace=wrap;html=1;fillColor=#fff2cc;strokeColor=#d6b656;" parent="50ZPBAp9W2moqsCLIOhF-1" vertex="1">
          <mxGeometry x="340.00000000000017" y="400" width="40" height="40" as="geometry" />
        </mxCell>
        <mxCell id="50ZPBAp9W2moqsCLIOhF-16" style="edgeStyle=orthogonalEdgeStyle;rounded=0;orthogonalLoop=1;jettySize=auto;html=1;entryX=0;entryY=0.5;entryDx=0;entryDy=0;dashed=1;dashPattern=1 2;" parent="50ZPBAp9W2moqsCLIOhF-1" source="50ZPBAp9W2moqsCLIOhF-17" target="50ZPBAp9W2moqsCLIOhF-18" edge="1">
          <mxGeometry relative="1" as="geometry" />
        </mxCell>
        <mxCell id="50ZPBAp9W2moqsCLIOhF-17" value="BlockOf&lt;br&gt;x1to1" style="ellipse;whiteSpace=wrap;html=1;fillColor=#b0e3e6;strokeColor=#0e8088;" parent="50ZPBAp9W2moqsCLIOhF-1" vertex="1">
          <mxGeometry x="800.0000000000001" y="320" width="80" height="40" as="geometry" />
        </mxCell>
        <mxCell id="50ZPBAp9W2moqsCLIOhF-18" value="" style="ellipse;whiteSpace=wrap;html=1;dashed=1;" parent="50ZPBAp9W2moqsCLIOhF-1" vertex="1">
          <mxGeometry x="920" y="320" width="80" height="40" as="geometry" />
        </mxCell>
        <mxCell id="50ZPBAp9W2moqsCLIOhF-144" style="edgeStyle=orthogonalEdgeStyle;rounded=1;orthogonalLoop=1;jettySize=auto;html=1;entryX=0.5;entryY=1;entryDx=0;entryDy=0;strokeColor=#000000;exitX=0.5;exitY=0;exitDx=0;exitDy=0;" parent="50ZPBAp9W2moqsCLIOhF-1" source="rJ4HG2NPKZ0k5CCJqCSB-1" target="50ZPBAp9W2moqsCLIOhF-15" edge="1">
          <mxGeometry relative="1" as="geometry">
            <mxPoint x="360.0000000000002" y="480" as="sourcePoint" />
          </mxGeometry>
        </mxCell>
        <mxCell id="50ZPBAp9W2moqsCLIOhF-215" style="edgeStyle=orthogonalEdgeStyle;rounded=0;orthogonalLoop=1;jettySize=auto;html=1;entryX=0;entryY=0.5;entryDx=0;entryDy=0;dashed=1;dashPattern=1 2;" parent="50ZPBAp9W2moqsCLIOhF-1" source="50ZPBAp9W2moqsCLIOhF-213" target="50ZPBAp9W2moqsCLIOhF-214" edge="1">
          <mxGeometry relative="1" as="geometry" />
        </mxCell>
        <mxCell id="50ZPBAp9W2moqsCLIOhF-213" value="TupleOf&lt;br&gt;[:y]" style="ellipse;whiteSpace=wrap;html=1;fillColor=#b0e3e6;strokeColor=#0e8088;" parent="50ZPBAp9W2moqsCLIOhF-1" vertex="1">
          <mxGeometry x="1160" y="240" width="80" height="40" as="geometry" />
        </mxCell>
        <mxCell id="50ZPBAp9W2moqsCLIOhF-214" value="Int" style="ellipse;whiteSpace=wrap;html=1;fillColor=#f5f5f5;strokeColor=#666666;fontColor=#333333;" parent="50ZPBAp9W2moqsCLIOhF-1" vertex="1">
          <mxGeometry x="1280" y="240" width="80" height="40" as="geometry" />
        </mxCell>
        <mxCell id="rJ4HG2NPKZ0k5CCJqCSB-0" style="edgeStyle=orthogonalEdgeStyle;rounded=1;orthogonalLoop=1;jettySize=auto;html=1;exitX=1;exitY=0.5;exitDx=0;exitDy=0;entryX=0;entryY=0.5;entryDx=0;entryDy=0;dashed=1;dashPattern=1 2;" parent="50ZPBAp9W2moqsCLIOhF-1" source="rJ4HG2NPKZ0k5CCJqCSB-1" target="rJ4HG2NPKZ0k5CCJqCSB-2" edge="1">
          <mxGeometry relative="1" as="geometry" />
        </mxCell>
        <mxCell id="rJ4HG2NPKZ0k5CCJqCSB-1" value="" style="ellipse;whiteSpace=wrap;html=1;aspect=fixed;rounded=1;shadow=0;glass=0;sketch=0;align=left;fillColor=#fff2cc;strokeColor=#d6b656;" parent="50ZPBAp9W2moqsCLIOhF-1" vertex="1">
          <mxGeometry x="350" y="490" width="20" height="20" as="geometry" />
        </mxCell>
        <mxCell id="rJ4HG2NPKZ0k5CCJqCSB-2" value="" style="ellipse;whiteSpace=wrap;html=1;dashed=1;" parent="50ZPBAp9W2moqsCLIOhF-1" vertex="1">
          <mxGeometry x="800" y="480" width="80" height="40" as="geometry" />
        </mxCell>
        <mxCell id="rJ4HG2NPKZ0k5CCJqCSB-3" style="edgeStyle=orthogonalEdgeStyle;rounded=0;orthogonalLoop=1;jettySize=auto;html=1;entryX=0;entryY=0.5;entryDx=0;entryDy=0;dashed=1;dashPattern=1 2;" parent="50ZPBAp9W2moqsCLIOhF-1" source="rJ4HG2NPKZ0k5CCJqCSB-4" target="rJ4HG2NPKZ0k5CCJqCSB-6" edge="1">
          <mxGeometry relative="1" as="geometry" />
        </mxCell>
        <mxCell id="rJ4HG2NPKZ0k5CCJqCSB-4" value="TupleOf&lt;br&gt;[:x]" style="ellipse;whiteSpace=wrap;html=1;fillColor=#b0e3e6;strokeColor=#0e8088;" parent="50ZPBAp9W2moqsCLIOhF-1" vertex="1">
          <mxGeometry x="800.0000000000001" y="400" width="80" height="40" as="geometry" />
        </mxCell>
        <mxCell id="rJ4HG2NPKZ0k5CCJqCSB-5" style="edgeStyle=orthogonalEdgeStyle;rounded=0;orthogonalLoop=1;jettySize=auto;html=1;entryX=0;entryY=0.5;entryDx=0;entryDy=0;dashed=1;dashPattern=1 2;" parent="50ZPBAp9W2moqsCLIOhF-1" source="rJ4HG2NPKZ0k5CCJqCSB-6" target="rJ4HG2NPKZ0k5CCJqCSB-8" edge="1">
          <mxGeometry relative="1" as="geometry" />
        </mxCell>
        <mxCell id="rJ4HG2NPKZ0k5CCJqCSB-6" value="BlockOf&lt;br&gt;x0toN" style="ellipse;whiteSpace=wrap;html=1;fillColor=#b0e3e6;strokeColor=#0e8088;" parent="50ZPBAp9W2moqsCLIOhF-1" vertex="1">
          <mxGeometry x="920" y="400" width="80" height="40" as="geometry" />
        </mxCell>
        <mxCell id="rJ4HG2NPKZ0k5CCJqCSB-7" style="edgeStyle=orthogonalEdgeStyle;rounded=0;orthogonalLoop=1;jettySize=auto;html=1;entryX=0;entryY=0.5;entryDx=0;entryDy=0;dashed=1;dashPattern=1 2;" parent="50ZPBAp9W2moqsCLIOhF-1" source="rJ4HG2NPKZ0k5CCJqCSB-8" target="rJ4HG2NPKZ0k5CCJqCSB-9" edge="1">
          <mxGeometry relative="1" as="geometry" />
        </mxCell>
        <mxCell id="rJ4HG2NPKZ0k5CCJqCSB-8" value="TupleOf&lt;br&gt;[:y]" style="ellipse;whiteSpace=wrap;html=1;fillColor=#b0e3e6;strokeColor=#0e8088;" parent="50ZPBAp9W2moqsCLIOhF-1" vertex="1">
          <mxGeometry x="1040" y="400" width="80" height="40" as="geometry" />
        </mxCell>
        <mxCell id="rJ4HG2NPKZ0k5CCJqCSB-9" value="Int" style="ellipse;whiteSpace=wrap;html=1;fillColor=#f5f5f5;strokeColor=#666666;fontColor=#333333;" parent="50ZPBAp9W2moqsCLIOhF-1" vertex="1">
          <mxGeometry x="1160" y="400" width="80" height="40" as="geometry" />
        </mxCell>
        <mxCell id="rJ4HG2NPKZ0k5CCJqCSB-10" style="edgeStyle=orthogonalEdgeStyle;rounded=0;orthogonalLoop=1;jettySize=auto;html=1;exitX=1;exitY=0.5;exitDx=0;exitDy=0;entryX=0;entryY=0.5;entryDx=0;entryDy=0;dashed=1;dashPattern=1 2;" parent="50ZPBAp9W2moqsCLIOhF-1" source="rJ4HG2NPKZ0k5CCJqCSB-11" target="rJ4HG2NPKZ0k5CCJqCSB-15" edge="1">
          <mxGeometry relative="1" as="geometry">
            <mxPoint x="880.00000000001" y="580" as="targetPoint" />
          </mxGeometry>
        </mxCell>
        <mxCell id="rJ4HG2NPKZ0k5CCJqCSB-19" style="edgeStyle=orthogonalEdgeStyle;rounded=1;orthogonalLoop=1;jettySize=auto;html=1;entryX=0.5;entryY=1;entryDx=0;entryDy=0;" parent="50ZPBAp9W2moqsCLIOhF-1" source="rJ4HG2NPKZ0k5CCJqCSB-11" target="50ZPBAp9W2moqsCLIOhF-15" edge="1">
          <mxGeometry relative="1" as="geometry">
            <Array as="points">
              <mxPoint x="440" y="460" />
              <mxPoint x="360" y="460" />
            </Array>
          </mxGeometry>
        </mxCell>
        <mxCell id="rJ4HG2NPKZ0k5CCJqCSB-11" value="1" style="rounded=1;whiteSpace=wrap;html=1;fillColor=#fff2cc;strokeColor=#d6b656;" parent="50ZPBAp9W2moqsCLIOhF-1" vertex="1">
          <mxGeometry x="420.00000000000017" y="560" width="40" height="40" as="geometry" />
        </mxCell>
        <mxCell id="rJ4HG2NPKZ0k5CCJqCSB-14" style="edgeStyle=orthogonalEdgeStyle;rounded=0;orthogonalLoop=1;jettySize=auto;html=1;entryX=0;entryY=0.5;entryDx=0;entryDy=0;dashed=1;dashPattern=1 2;" parent="50ZPBAp9W2moqsCLIOhF-1" source="rJ4HG2NPKZ0k5CCJqCSB-15" target="rJ4HG2NPKZ0k5CCJqCSB-17" edge="1">
          <mxGeometry relative="1" as="geometry" />
        </mxCell>
        <mxCell id="rJ4HG2NPKZ0k5CCJqCSB-15" value="BlockOf&lt;br&gt;x0toN" style="ellipse;whiteSpace=wrap;html=1;fillColor=#b0e3e6;strokeColor=#0e8088;" parent="50ZPBAp9W2moqsCLIOhF-1" vertex="1">
          <mxGeometry x="800" y="560" width="80" height="40" as="geometry" />
        </mxCell>
        <mxCell id="rJ4HG2NPKZ0k5CCJqCSB-16" style="edgeStyle=orthogonalEdgeStyle;rounded=0;orthogonalLoop=1;jettySize=auto;html=1;entryX=0;entryY=0.5;entryDx=0;entryDy=0;dashed=1;dashPattern=1 2;" parent="50ZPBAp9W2moqsCLIOhF-1" source="rJ4HG2NPKZ0k5CCJqCSB-17" target="rJ4HG2NPKZ0k5CCJqCSB-18" edge="1">
          <mxGeometry relative="1" as="geometry" />
        </mxCell>
        <mxCell id="rJ4HG2NPKZ0k5CCJqCSB-17" value="TupleOf&lt;br&gt;[:y]" style="ellipse;whiteSpace=wrap;html=1;fillColor=#b0e3e6;strokeColor=#0e8088;" parent="50ZPBAp9W2moqsCLIOhF-1" vertex="1">
          <mxGeometry x="920" y="560" width="80" height="40" as="geometry" />
        </mxCell>
        <mxCell id="rJ4HG2NPKZ0k5CCJqCSB-18" value="Int" style="ellipse;whiteSpace=wrap;html=1;fillColor=#f5f5f5;strokeColor=#666666;fontColor=#333333;" parent="50ZPBAp9W2moqsCLIOhF-1" vertex="1">
          <mxGeometry x="1040" y="560" width="80" height="40" as="geometry" />
        </mxCell>
        <mxCell id="rJ4HG2NPKZ0k5CCJqCSB-22" style="edgeStyle=orthogonalEdgeStyle;rounded=1;orthogonalLoop=1;jettySize=auto;html=1;entryX=0.5;entryY=1;entryDx=0;entryDy=0;" parent="50ZPBAp9W2moqsCLIOhF-1" source="rJ4HG2NPKZ0k5CCJqCSB-20" target="rJ4HG2NPKZ0k5CCJqCSB-11" edge="1">
          <mxGeometry relative="1" as="geometry" />
        </mxCell>
        <mxCell id="rJ4HG2NPKZ0k5CCJqCSB-30" style="edgeStyle=orthogonalEdgeStyle;rounded=1;orthogonalLoop=1;jettySize=auto;html=1;entryX=0;entryY=0.5;entryDx=0;entryDy=0;dashed=1;dashPattern=1 2;" parent="50ZPBAp9W2moqsCLIOhF-1" source="rJ4HG2NPKZ0k5CCJqCSB-20" target="rJ4HG2NPKZ0k5CCJqCSB-28" edge="1">
          <mxGeometry relative="1" as="geometry" />
        </mxCell>
        <mxCell id="rJ4HG2NPKZ0k5CCJqCSB-20" value="head" style="rounded=1;whiteSpace=wrap;html=1;fillColor=#fff2cc;strokeColor=#d6b656;" parent="50ZPBAp9W2moqsCLIOhF-1" vertex="1">
          <mxGeometry x="420.00000000000017" y="640" width="40" height="40" as="geometry" />
        </mxCell>
        <mxCell id="rJ4HG2NPKZ0k5CCJqCSB-23" style="edgeStyle=orthogonalEdgeStyle;rounded=1;orthogonalLoop=1;jettySize=auto;html=1;entryX=0.5;entryY=1;entryDx=0;entryDy=0;" parent="50ZPBAp9W2moqsCLIOhF-1" source="rJ4HG2NPKZ0k5CCJqCSB-21" target="rJ4HG2NPKZ0k5CCJqCSB-11" edge="1">
          <mxGeometry relative="1" as="geometry">
            <Array as="points">
              <mxPoint x="520" y="620" />
              <mxPoint x="440" y="620" />
            </Array>
          </mxGeometry>
        </mxCell>
        <mxCell id="rJ4HG2NPKZ0k5CCJqCSB-32" style="edgeStyle=orthogonalEdgeStyle;rounded=1;orthogonalLoop=1;jettySize=auto;html=1;entryX=0;entryY=0.5;entryDx=0;entryDy=0;dashed=1;dashPattern=1 2;" parent="50ZPBAp9W2moqsCLIOhF-1" source="rJ4HG2NPKZ0k5CCJqCSB-21" target="rJ4HG2NPKZ0k5CCJqCSB-26" edge="1">
          <mxGeometry relative="1" as="geometry" />
        </mxCell>
        <mxCell id="rJ4HG2NPKZ0k5CCJqCSB-21" value="1" style="rounded=1;whiteSpace=wrap;html=1;fillColor=#fff2cc;strokeColor=#d6b656;" parent="50ZPBAp9W2moqsCLIOhF-1" vertex="1">
          <mxGeometry x="500.00000000000017" y="720" width="40" height="40" as="geometry" />
        </mxCell>
        <mxCell id="rJ4HG2NPKZ0k5CCJqCSB-25" style="edgeStyle=orthogonalEdgeStyle;rounded=0;orthogonalLoop=1;jettySize=auto;html=1;entryX=0;entryY=0.5;entryDx=0;entryDy=0;dashed=1;dashPattern=1 2;" parent="50ZPBAp9W2moqsCLIOhF-1" source="rJ4HG2NPKZ0k5CCJqCSB-26" target="rJ4HG2NPKZ0k5CCJqCSB-27" edge="1">
          <mxGeometry relative="1" as="geometry" />
        </mxCell>
        <mxCell id="rJ4HG2NPKZ0k5CCJqCSB-26" value="TupleOf&lt;br&gt;[:y]" style="ellipse;whiteSpace=wrap;html=1;fillColor=#b0e3e6;strokeColor=#0e8088;" parent="50ZPBAp9W2moqsCLIOhF-1" vertex="1">
          <mxGeometry x="800" y="720" width="80" height="40" as="geometry" />
        </mxCell>
        <mxCell id="rJ4HG2NPKZ0k5CCJqCSB-27" value="Int" style="ellipse;whiteSpace=wrap;html=1;fillColor=#f5f5f5;strokeColor=#666666;fontColor=#333333;" parent="50ZPBAp9W2moqsCLIOhF-1" vertex="1">
          <mxGeometry x="920" y="720" width="80" height="40" as="geometry" />
        </mxCell>
        <mxCell id="rJ4HG2NPKZ0k5CCJqCSB-31" style="edgeStyle=orthogonalEdgeStyle;rounded=1;orthogonalLoop=1;jettySize=auto;html=1;entryX=0;entryY=0.5;entryDx=0;entryDy=0;dashed=1;dashPattern=1 2;" parent="50ZPBAp9W2moqsCLIOhF-1" source="rJ4HG2NPKZ0k5CCJqCSB-28" target="rJ4HG2NPKZ0k5CCJqCSB-29" edge="1">
          <mxGeometry relative="1" as="geometry" />
        </mxCell>
        <mxCell id="rJ4HG2NPKZ0k5CCJqCSB-28" value="BlockOf&lt;br&gt;x0toN" style="ellipse;whiteSpace=wrap;html=1;fillColor=#b0e3e6;strokeColor=#0e8088;" parent="50ZPBAp9W2moqsCLIOhF-1" vertex="1">
          <mxGeometry x="800" y="640" width="80" height="40" as="geometry" />
        </mxCell>
        <mxCell id="rJ4HG2NPKZ0k5CCJqCSB-29" value="" style="ellipse;whiteSpace=wrap;html=1;dashed=1;" parent="50ZPBAp9W2moqsCLIOhF-1" vertex="1">
          <mxGeometry x="920" y="640" width="80" height="40" as="geometry" />
        </mxCell>
        <mxCell id="l6poA-RnXSSQxTHwChxh-1" style="edgeStyle=orthogonalEdgeStyle;rounded=1;orthogonalLoop=1;jettySize=auto;html=1;entryX=0.5;entryY=1;entryDx=0;entryDy=0;" parent="50ZPBAp9W2moqsCLIOhF-1" source="l6poA-RnXSSQxTHwChxh-0" target="rJ4HG2NPKZ0k5CCJqCSB-1" edge="1">
          <mxGeometry relative="1" as="geometry">
            <Array as="points">
              <mxPoint x="280" y="540" />
              <mxPoint x="360" y="540" />
            </Array>
          </mxGeometry>
        </mxCell>
        <mxCell id="l6poA-RnXSSQxTHwChxh-7" style="edgeStyle=orthogonalEdgeStyle;rounded=1;orthogonalLoop=1;jettySize=auto;html=1;entryX=0;entryY=0.5;entryDx=0;entryDy=0;dashed=1;dashPattern=1 2;" parent="50ZPBAp9W2moqsCLIOhF-1" source="l6poA-RnXSSQxTHwChxh-0" target="l6poA-RnXSSQxTHwChxh-3" edge="1">
          <mxGeometry relative="1" as="geometry" />
        </mxCell>
        <mxCell id="l6poA-RnXSSQxTHwChxh-0" value="tuple_of(2)" style="rounded=1;whiteSpace=wrap;html=1;fillColor=#d5e8d4;strokeColor=#82b366;" parent="50ZPBAp9W2moqsCLIOhF-1" vertex="1">
          <mxGeometry x="240" y="800" width="80" height="40" as="geometry" />
        </mxCell>
        <mxCell id="l6poA-RnXSSQxTHwChxh-2" style="edgeStyle=orthogonalEdgeStyle;rounded=1;orthogonalLoop=1;jettySize=auto;html=1;entryX=0;entryY=0.5;entryDx=0;entryDy=0;dashed=1;dashPattern=1 2;" parent="50ZPBAp9W2moqsCLIOhF-1" source="l6poA-RnXSSQxTHwChxh-3" target="l6poA-RnXSSQxTHwChxh-4" edge="1">
          <mxGeometry relative="1" as="geometry" />
        </mxCell>
        <mxCell id="l6poA-RnXSSQxTHwChxh-6" style="edgeStyle=orthogonalEdgeStyle;rounded=1;orthogonalLoop=1;jettySize=auto;html=1;entryX=0;entryY=0.5;entryDx=0;entryDy=0;dashed=1;dashPattern=1 2;" parent="50ZPBAp9W2moqsCLIOhF-1" source="l6poA-RnXSSQxTHwChxh-3" target="l6poA-RnXSSQxTHwChxh-5" edge="1">
          <mxGeometry relative="1" as="geometry" />
        </mxCell>
        <mxCell id="l6poA-RnXSSQxTHwChxh-3" value="TupleOf" style="ellipse;whiteSpace=wrap;html=1;fillColor=#b0e3e6;strokeColor=#0e8088;" parent="50ZPBAp9W2moqsCLIOhF-1" vertex="1">
          <mxGeometry x="800" y="800" width="80" height="40" as="geometry" />
        </mxCell>
        <mxCell id="l6poA-RnXSSQxTHwChxh-5" value="" style="ellipse;whiteSpace=wrap;html=1;dashed=1;" parent="50ZPBAp9W2moqsCLIOhF-1" vertex="1">
          <mxGeometry x="920" y="810" width="80" height="40" as="geometry" />
        </mxCell>
        <mxCell id="lDamT650DKz6mLPzZlBC-1" style="edgeStyle=orthogonalEdgeStyle;rounded=1;orthogonalLoop=1;jettySize=auto;html=1;entryX=0.5;entryY=1;entryDx=0;entryDy=0;" parent="50ZPBAp9W2moqsCLIOhF-1" source="lDamT650DKz6mLPzZlBC-0" target="l6poA-RnXSSQxTHwChxh-0" edge="1">
          <mxGeometry relative="1" as="geometry" />
        </mxCell>
        <mxCell id="lDamT650DKz6mLPzZlBC-2" style="edgeStyle=orthogonalEdgeStyle;rounded=1;orthogonalLoop=1;jettySize=auto;html=1;entryX=0.5;entryY=1;entryDx=0;entryDy=0;" parent="50ZPBAp9W2moqsCLIOhF-1" source="lDamT650DKz6mLPzZlBC-0" target="rJ4HG2NPKZ0k5CCJqCSB-20" edge="1">
          <mxGeometry relative="1" as="geometry" />
        </mxCell>
        <mxCell id="lDamT650DKz6mLPzZlBC-3" style="edgeStyle=orthogonalEdgeStyle;rounded=1;orthogonalLoop=1;jettySize=auto;html=1;entryX=0.5;entryY=1;entryDx=0;entryDy=0;" parent="50ZPBAp9W2moqsCLIOhF-1" source="lDamT650DKz6mLPzZlBC-0" target="rJ4HG2NPKZ0k5CCJqCSB-1" edge="1">
          <mxGeometry relative="1" as="geometry">
            <mxPoint x="360" y="570" as="targetPoint" />
          </mxGeometry>
        </mxCell>
        <mxCell id="lDamT650DKz6mLPzZlBC-12" style="edgeStyle=orthogonalEdgeStyle;rounded=1;orthogonalLoop=1;jettySize=auto;html=1;entryX=0;entryY=0.5;entryDx=0;entryDy=0;dashed=1;dashPattern=1 2;" parent="50ZPBAp9W2moqsCLIOhF-1" source="lDamT650DKz6mLPzZlBC-0" target="lDamT650DKz6mLPzZlBC-6" edge="1">
          <mxGeometry relative="1" as="geometry" />
        </mxCell>
        <mxCell id="lDamT650DKz6mLPzZlBC-0" value="" style="rounded=0;whiteSpace=wrap;html=1;fillColor=#dae8fc;strokeColor=#6c8ebf;" parent="50ZPBAp9W2moqsCLIOhF-1" vertex="1">
          <mxGeometry x="349.99999999999994" y="890" width="20" height="20" as="geometry" />
        </mxCell>
        <mxCell id="lDamT650DKz6mLPzZlBC-4" style="edgeStyle=orthogonalEdgeStyle;rounded=1;orthogonalLoop=1;jettySize=auto;html=1;entryX=0;entryY=0.5;entryDx=0;entryDy=0;dashed=1;dashPattern=1 2;" parent="50ZPBAp9W2moqsCLIOhF-1" source="lDamT650DKz6mLPzZlBC-6" target="lDamT650DKz6mLPzZlBC-10" edge="1">
          <mxGeometry relative="1" as="geometry">
            <mxPoint x="920" y="890" as="targetPoint" />
          </mxGeometry>
        </mxCell>
        <mxCell id="lDamT650DKz6mLPzZlBC-5" style="edgeStyle=orthogonalEdgeStyle;rounded=1;orthogonalLoop=1;jettySize=auto;html=1;entryX=0;entryY=0.5;entryDx=0;entryDy=0;dashed=1;dashPattern=1 2;" parent="50ZPBAp9W2moqsCLIOhF-1" source="lDamT650DKz6mLPzZlBC-6" target="lDamT650DKz6mLPzZlBC-8" edge="1">
          <mxGeometry relative="1" as="geometry" />
        </mxCell>
        <mxCell id="lDamT650DKz6mLPzZlBC-6" value="TupleOf" style="ellipse;whiteSpace=wrap;html=1;fillColor=#b0e3e6;strokeColor=#0e8088;" parent="50ZPBAp9W2moqsCLIOhF-1" vertex="1">
          <mxGeometry x="800" y="880" width="80" height="40" as="geometry" />
        </mxCell>
        <mxCell id="lDamT650DKz6mLPzZlBC-8" value="" style="ellipse;whiteSpace=wrap;html=1;dashed=1;" parent="50ZPBAp9W2moqsCLIOhF-1" vertex="1">
          <mxGeometry x="920" y="890" width="80" height="40" as="geometry" />
        </mxCell>
        <mxCell id="lDamT650DKz6mLPzZlBC-9" style="edgeStyle=orthogonalEdgeStyle;rounded=1;orthogonalLoop=1;jettySize=auto;html=1;entryX=0;entryY=0.5;entryDx=0;entryDy=0;dashed=1;dashPattern=1 2;" parent="50ZPBAp9W2moqsCLIOhF-1" source="lDamT650DKz6mLPzZlBC-10" target="lDamT650DKz6mLPzZlBC-11" edge="1">
          <mxGeometry relative="1" as="geometry" />
        </mxCell>
        <mxCell id="lDamT650DKz6mLPzZlBC-10" value="BlockOf&lt;br&gt;x0toN" style="ellipse;whiteSpace=wrap;html=1;fillColor=#b0e3e6;strokeColor=#0e8088;" parent="50ZPBAp9W2moqsCLIOhF-1" vertex="1">
          <mxGeometry x="920" y="870" width="80" height="40" as="geometry" />
        </mxCell>
        <mxCell id="lDamT650DKz6mLPzZlBC-11" value="" style="ellipse;whiteSpace=wrap;html=1;dashed=1;" parent="50ZPBAp9W2moqsCLIOhF-1" vertex="1">
          <mxGeometry x="1040" y="870" width="80" height="40" as="geometry" />
        </mxCell>
        <mxCell id="l6poA-RnXSSQxTHwChxh-4" value="" style="ellipse;whiteSpace=wrap;html=1;dashed=1;" parent="50ZPBAp9W2moqsCLIOhF-1" vertex="1">
          <mxGeometry x="920" y="790" width="80" height="40" as="geometry" />
        </mxCell>
        <mxCell id="lDamT650DKz6mLPzZlBC-20" style="edgeStyle=orthogonalEdgeStyle;rounded=1;orthogonalLoop=1;jettySize=auto;html=1;entryX=0;entryY=0.5;entryDx=0;entryDy=0;dashed=1;dashPattern=1 2;" parent="50ZPBAp9W2moqsCLIOhF-1" source="lDamT650DKz6mLPzZlBC-13" target="lDamT650DKz6mLPzZlBC-14" edge="1">
          <mxGeometry relative="1" as="geometry" />
        </mxCell>
        <mxCell id="lDamT650DKz6mLPzZlBC-22" style="edgeStyle=orthogonalEdgeStyle;rounded=1;orthogonalLoop=1;jettySize=auto;html=1;entryX=0.5;entryY=1;entryDx=0;entryDy=0;" parent="50ZPBAp9W2moqsCLIOhF-1" source="lDamT650DKz6mLPzZlBC-13" target="lDamT650DKz6mLPzZlBC-0" edge="1">
          <mxGeometry relative="1" as="geometry" />
        </mxCell>
        <mxCell id="sLpWqep00FUc6430DV7D-0" value="" style="edgeStyle=orthogonalEdgeStyle;rounded=1;orthogonalLoop=1;jettySize=auto;html=1;dashed=1;dashPattern=1 2;" parent="50ZPBAp9W2moqsCLIOhF-1" source="lDamT650DKz6mLPzZlBC-13" target="lDamT650DKz6mLPzZlBC-0" edge="1">
          <mxGeometry relative="1" as="geometry" />
        </mxCell>
        <mxCell id="lDamT650DKz6mLPzZlBC-13" value="distribute(1)" style="rounded=1;whiteSpace=wrap;html=1;fillColor=#d5e8d4;strokeColor=#82b366;" parent="50ZPBAp9W2moqsCLIOhF-1" vertex="1">
          <mxGeometry x="320" y="960" width="80" height="40" as="geometry" />
        </mxCell>
        <mxCell id="lDamT650DKz6mLPzZlBC-21" style="edgeStyle=orthogonalEdgeStyle;rounded=1;orthogonalLoop=1;jettySize=auto;html=1;entryX=0;entryY=0.5;entryDx=0;entryDy=0;dashed=1;dashPattern=1 2;" parent="50ZPBAp9W2moqsCLIOhF-1" source="lDamT650DKz6mLPzZlBC-14" target="lDamT650DKz6mLPzZlBC-17" edge="1">
          <mxGeometry relative="1" as="geometry" />
        </mxCell>
        <mxCell id="lDamT650DKz6mLPzZlBC-14" value="BlockOf&lt;br&gt;x0toN" style="ellipse;whiteSpace=wrap;html=1;fillColor=#b0e3e6;strokeColor=#0e8088;" parent="50ZPBAp9W2moqsCLIOhF-1" vertex="1">
          <mxGeometry x="800" y="960" width="80" height="40" as="geometry" />
        </mxCell>
        <mxCell id="lDamT650DKz6mLPzZlBC-15" style="edgeStyle=orthogonalEdgeStyle;rounded=1;orthogonalLoop=1;jettySize=auto;html=1;entryX=0;entryY=0.5;entryDx=0;entryDy=0;dashed=1;dashPattern=1 2;" parent="50ZPBAp9W2moqsCLIOhF-1" source="lDamT650DKz6mLPzZlBC-17" target="lDamT650DKz6mLPzZlBC-19" edge="1">
          <mxGeometry relative="1" as="geometry" />
        </mxCell>
        <mxCell id="lDamT650DKz6mLPzZlBC-16" style="edgeStyle=orthogonalEdgeStyle;rounded=1;orthogonalLoop=1;jettySize=auto;html=1;entryX=0;entryY=0.5;entryDx=0;entryDy=0;dashed=1;dashPattern=1 2;" parent="50ZPBAp9W2moqsCLIOhF-1" source="lDamT650DKz6mLPzZlBC-17" target="lDamT650DKz6mLPzZlBC-18" edge="1">
          <mxGeometry relative="1" as="geometry" />
        </mxCell>
        <mxCell id="lDamT650DKz6mLPzZlBC-17" value="TupleOf" style="ellipse;whiteSpace=wrap;html=1;fillColor=#b0e3e6;strokeColor=#0e8088;" parent="50ZPBAp9W2moqsCLIOhF-1" vertex="1">
          <mxGeometry x="920" y="960" width="80" height="40" as="geometry" />
        </mxCell>
        <mxCell id="lDamT650DKz6mLPzZlBC-18" value="" style="ellipse;whiteSpace=wrap;html=1;dashed=1;" parent="50ZPBAp9W2moqsCLIOhF-1" vertex="1">
          <mxGeometry x="1040" y="970" width="80" height="40" as="geometry" />
        </mxCell>
        <mxCell id="lDamT650DKz6mLPzZlBC-19" value="" style="ellipse;whiteSpace=wrap;html=1;dashed=1;" parent="50ZPBAp9W2moqsCLIOhF-1" vertex="1">
          <mxGeometry x="1040" y="950" width="80" height="40" as="geometry" />
        </mxCell>
        <mxCell id="41dyn_L0o9VFKHxjXRY8-0" style="edgeStyle=orthogonalEdgeStyle;rounded=1;orthogonalLoop=1;jettySize=auto;html=1;entryX=0.5;entryY=1;entryDx=0;entryDy=0;" parent="50ZPBAp9W2moqsCLIOhF-1" source="41dyn_L0o9VFKHxjXRY8-2" target="41dyn_L0o9VFKHxjXRY8-4" edge="1">
          <mxGeometry relative="1" as="geometry" />
        </mxCell>
        <mxCell id="41dyn_L0o9VFKHxjXRY8-1" style="edgeStyle=orthogonalEdgeStyle;rounded=1;orthogonalLoop=1;jettySize=auto;html=1;entryX=0;entryY=0.5;entryDx=0;entryDy=0;dashed=1;dashPattern=1 2;" parent="50ZPBAp9W2moqsCLIOhF-1" source="41dyn_L0o9VFKHxjXRY8-2" target="41dyn_L0o9VFKHxjXRY8-11" edge="1">
          <mxGeometry relative="1" as="geometry" />
        </mxCell>
        <mxCell id="41dyn_L0o9VFKHxjXRY8-2" value="flatten()" style="rounded=1;whiteSpace=wrap;html=1;fillColor=#d5e8d4;strokeColor=#82b366;" parent="50ZPBAp9W2moqsCLIOhF-1" vertex="1">
          <mxGeometry x="160" y="1200" width="80" height="40" as="geometry" />
        </mxCell>
        <mxCell id="41dyn_L0o9VFKHxjXRY8-3" style="edgeStyle=orthogonalEdgeStyle;rounded=1;orthogonalLoop=1;jettySize=auto;html=1;entryX=0;entryY=0.5;entryDx=0;entryDy=0;dashed=1;dashPattern=1 2;" parent="50ZPBAp9W2moqsCLIOhF-1" source="41dyn_L0o9VFKHxjXRY8-4" target="41dyn_L0o9VFKHxjXRY8-6" edge="1">
          <mxGeometry relative="1" as="geometry" />
        </mxCell>
        <mxCell id="41dyn_L0o9VFKHxjXRY8-13" style="edgeStyle=orthogonalEdgeStyle;rounded=1;orthogonalLoop=1;jettySize=auto;html=1;entryX=0.5;entryY=1;entryDx=0;entryDy=0;" parent="50ZPBAp9W2moqsCLIOhF-1" source="41dyn_L0o9VFKHxjXRY8-4" target="50ZPBAp9W2moqsCLIOhF-12" edge="1">
          <mxGeometry relative="1" as="geometry" />
        </mxCell>
        <mxCell id="41dyn_L0o9VFKHxjXRY8-21" style="edgeStyle=orthogonalEdgeStyle;rounded=1;orthogonalLoop=1;jettySize=auto;html=1;entryX=0.5;entryY=1;entryDx=0;entryDy=0;" parent="50ZPBAp9W2moqsCLIOhF-1" source="41dyn_L0o9VFKHxjXRY8-4" target="41dyn_L0o9VFKHxjXRY8-16" edge="1">
          <mxGeometry relative="1" as="geometry" />
        </mxCell>
        <mxCell id="41dyn_L0o9VFKHxjXRY8-4" value="" style="rounded=0;whiteSpace=wrap;html=1;fillColor=#dae8fc;strokeColor=#6c8ebf;" parent="50ZPBAp9W2moqsCLIOhF-1" vertex="1">
          <mxGeometry x="189.99999999999994" y="1130" width="20" height="20" as="geometry" />
        </mxCell>
        <mxCell id="41dyn_L0o9VFKHxjXRY8-5" style="edgeStyle=orthogonalEdgeStyle;rounded=1;orthogonalLoop=1;jettySize=auto;html=1;exitX=1;exitY=0.5;exitDx=0;exitDy=0;entryX=0;entryY=0.5;entryDx=0;entryDy=0;dashed=1;dashPattern=1 2;" parent="50ZPBAp9W2moqsCLIOhF-1" source="41dyn_L0o9VFKHxjXRY8-6" target="41dyn_L0o9VFKHxjXRY8-8" edge="1">
          <mxGeometry relative="1" as="geometry" />
        </mxCell>
        <mxCell id="41dyn_L0o9VFKHxjXRY8-6" value="BlockOf&lt;br&gt;x1to1" style="ellipse;whiteSpace=wrap;html=1;fillColor=#b0e3e6;strokeColor=#0e8088;" parent="50ZPBAp9W2moqsCLIOhF-1" vertex="1">
          <mxGeometry x="800.0000000000001" y="1120" width="80" height="40" as="geometry" />
        </mxCell>
        <mxCell id="41dyn_L0o9VFKHxjXRY8-7" style="edgeStyle=orthogonalEdgeStyle;rounded=1;orthogonalLoop=1;jettySize=auto;html=1;entryX=0;entryY=0.5;entryDx=0;entryDy=0;dashed=1;dashPattern=1 2;" parent="50ZPBAp9W2moqsCLIOhF-1" source="41dyn_L0o9VFKHxjXRY8-8" target="41dyn_L0o9VFKHxjXRY8-9" edge="1">
          <mxGeometry relative="1" as="geometry" />
        </mxCell>
        <mxCell id="41dyn_L0o9VFKHxjXRY8-8" value="BlockOf&lt;br&gt;x0toN" style="ellipse;whiteSpace=wrap;html=1;fillColor=#b0e3e6;strokeColor=#0e8088;" parent="50ZPBAp9W2moqsCLIOhF-1" vertex="1">
          <mxGeometry x="920.0000000000001" y="1120" width="80" height="40" as="geometry" />
        </mxCell>
        <mxCell id="41dyn_L0o9VFKHxjXRY8-9" value="" style="ellipse;whiteSpace=wrap;html=1;dashed=1;" parent="50ZPBAp9W2moqsCLIOhF-1" vertex="1">
          <mxGeometry x="1040" y="1120" width="80" height="40" as="geometry" />
        </mxCell>
        <mxCell id="41dyn_L0o9VFKHxjXRY8-10" style="edgeStyle=orthogonalEdgeStyle;rounded=1;orthogonalLoop=1;jettySize=auto;html=1;entryX=0;entryY=0.5;entryDx=0;entryDy=0;dashed=1;dashPattern=1 2;" parent="50ZPBAp9W2moqsCLIOhF-1" source="41dyn_L0o9VFKHxjXRY8-11" target="41dyn_L0o9VFKHxjXRY8-12" edge="1">
          <mxGeometry relative="1" as="geometry" />
        </mxCell>
        <mxCell id="41dyn_L0o9VFKHxjXRY8-11" value="BlockOf&lt;br&gt;x0toN" style="ellipse;whiteSpace=wrap;html=1;fillColor=#b0e3e6;strokeColor=#0e8088;" parent="50ZPBAp9W2moqsCLIOhF-1" vertex="1">
          <mxGeometry x="800.0000000000001" y="1200" width="80" height="40" as="geometry" />
        </mxCell>
        <mxCell id="41dyn_L0o9VFKHxjXRY8-12" value="" style="ellipse;whiteSpace=wrap;html=1;dashed=1;" parent="50ZPBAp9W2moqsCLIOhF-1" vertex="1">
          <mxGeometry x="920" y="1200" width="80" height="40" as="geometry" />
        </mxCell>
        <mxCell id="41dyn_L0o9VFKHxjXRY8-15" style="edgeStyle=orthogonalEdgeStyle;rounded=1;orthogonalLoop=1;jettySize=auto;html=1;entryX=0;entryY=0.5;entryDx=0;entryDy=0;dashed=1;dashPattern=1 2;" parent="50ZPBAp9W2moqsCLIOhF-1" source="41dyn_L0o9VFKHxjXRY8-16" target="41dyn_L0o9VFKHxjXRY8-18" edge="1">
          <mxGeometry relative="1" as="geometry" />
        </mxCell>
        <mxCell id="41dyn_L0o9VFKHxjXRY8-20" style="edgeStyle=orthogonalEdgeStyle;rounded=1;orthogonalLoop=1;jettySize=auto;html=1;entryX=0.5;entryY=1;entryDx=0;entryDy=0;" parent="50ZPBAp9W2moqsCLIOhF-1" source="41dyn_L0o9VFKHxjXRY8-16" target="lDamT650DKz6mLPzZlBC-13" edge="1">
          <mxGeometry relative="1" as="geometry" />
        </mxCell>
        <mxCell id="41dyn_L0o9VFKHxjXRY8-16" value="head" style="rounded=1;whiteSpace=wrap;html=1;fillColor=#fff2cc;strokeColor=#d6b656;" parent="50ZPBAp9W2moqsCLIOhF-1" vertex="1">
          <mxGeometry x="340.00000000000017" y="1040" width="40" height="40" as="geometry" />
        </mxCell>
        <mxCell id="41dyn_L0o9VFKHxjXRY8-17" style="edgeStyle=orthogonalEdgeStyle;rounded=1;orthogonalLoop=1;jettySize=auto;html=1;entryX=0;entryY=0.5;entryDx=0;entryDy=0;dashed=1;dashPattern=1 2;" parent="50ZPBAp9W2moqsCLIOhF-1" source="41dyn_L0o9VFKHxjXRY8-18" target="41dyn_L0o9VFKHxjXRY8-19" edge="1">
          <mxGeometry relative="1" as="geometry" />
        </mxCell>
        <mxCell id="41dyn_L0o9VFKHxjXRY8-18" value="BlockOf&lt;br&gt;x0toN" style="ellipse;whiteSpace=wrap;html=1;fillColor=#b0e3e6;strokeColor=#0e8088;" parent="50ZPBAp9W2moqsCLIOhF-1" vertex="1">
          <mxGeometry x="800" y="1040" width="80" height="40" as="geometry" />
        </mxCell>
        <mxCell id="41dyn_L0o9VFKHxjXRY8-19" value="" style="ellipse;whiteSpace=wrap;html=1;dashed=1;" parent="50ZPBAp9W2moqsCLIOhF-1" vertex="1">
          <mxGeometry x="920" y="1040" width="80" height="40" as="geometry" />
        </mxCell>
        <mxCell id="41dyn_L0o9VFKHxjXRY8-23" style="edgeStyle=orthogonalEdgeStyle;rounded=1;orthogonalLoop=1;jettySize=auto;html=1;entryX=0.5;entryY=1;entryDx=0;entryDy=0;" parent="50ZPBAp9W2moqsCLIOhF-1" source="41dyn_L0o9VFKHxjXRY8-22" target="41dyn_L0o9VFKHxjXRY8-2" edge="1">
          <mxGeometry relative="1" as="geometry" />
        </mxCell>
        <mxCell id="41dyn_L0o9VFKHxjXRY8-24" style="edgeStyle=orthogonalEdgeStyle;rounded=1;orthogonalLoop=1;jettySize=auto;html=1;entryX=0.5;entryY=1;entryDx=0;entryDy=0;" parent="50ZPBAp9W2moqsCLIOhF-1" source="41dyn_L0o9VFKHxjXRY8-22" target="rJ4HG2NPKZ0k5CCJqCSB-21" edge="1">
          <mxGeometry relative="1" as="geometry" />
        </mxCell>
        <mxCell id="41dyn_L0o9VFKHxjXRY8-32" style="edgeStyle=orthogonalEdgeStyle;rounded=1;orthogonalLoop=1;jettySize=auto;html=1;entryX=0;entryY=0.5;entryDx=0;entryDy=0;dashed=1;dashPattern=1 2;" parent="50ZPBAp9W2moqsCLIOhF-1" source="41dyn_L0o9VFKHxjXRY8-22" target="41dyn_L0o9VFKHxjXRY8-26" edge="1">
          <mxGeometry relative="1" as="geometry" />
        </mxCell>
        <mxCell id="41dyn_L0o9VFKHxjXRY8-22" value="" style="rounded=0;whiteSpace=wrap;html=1;fillColor=#dae8fc;strokeColor=#6c8ebf;" parent="50ZPBAp9W2moqsCLIOhF-1" vertex="1">
          <mxGeometry x="189.99999999999994" y="1290" width="20" height="20" as="geometry" />
        </mxCell>
        <mxCell id="41dyn_L0o9VFKHxjXRY8-31" style="edgeStyle=orthogonalEdgeStyle;rounded=1;orthogonalLoop=1;jettySize=auto;html=1;entryX=0;entryY=0.5;entryDx=0;entryDy=0;dashed=1;dashPattern=1 2;" parent="50ZPBAp9W2moqsCLIOhF-1" source="41dyn_L0o9VFKHxjXRY8-26" target="41dyn_L0o9VFKHxjXRY8-29" edge="1">
          <mxGeometry relative="1" as="geometry" />
        </mxCell>
        <mxCell id="41dyn_L0o9VFKHxjXRY8-26" value="BlockOf&lt;br&gt;x0toN" style="ellipse;whiteSpace=wrap;html=1;fillColor=#b0e3e6;strokeColor=#0e8088;" parent="50ZPBAp9W2moqsCLIOhF-1" vertex="1">
          <mxGeometry x="800.0000000000001" y="1280" width="80" height="40" as="geometry" />
        </mxCell>
        <mxCell id="41dyn_L0o9VFKHxjXRY8-28" style="edgeStyle=orthogonalEdgeStyle;rounded=0;orthogonalLoop=1;jettySize=auto;html=1;entryX=0;entryY=0.5;entryDx=0;entryDy=0;dashed=1;dashPattern=1 2;" parent="50ZPBAp9W2moqsCLIOhF-1" source="41dyn_L0o9VFKHxjXRY8-29" target="41dyn_L0o9VFKHxjXRY8-30" edge="1">
          <mxGeometry relative="1" as="geometry" />
        </mxCell>
        <mxCell id="41dyn_L0o9VFKHxjXRY8-29" value="TupleOf&lt;br&gt;[:y]" style="ellipse;whiteSpace=wrap;html=1;fillColor=#b0e3e6;strokeColor=#0e8088;" parent="50ZPBAp9W2moqsCLIOhF-1" vertex="1">
          <mxGeometry x="920" y="1280" width="80" height="40" as="geometry" />
        </mxCell>
        <mxCell id="41dyn_L0o9VFKHxjXRY8-30" value="Int" style="ellipse;whiteSpace=wrap;html=1;fillColor=#f5f5f5;strokeColor=#666666;fontColor=#333333;" parent="50ZPBAp9W2moqsCLIOhF-1" vertex="1">
          <mxGeometry x="1040" y="1280" width="80" height="40" as="geometry" />
        </mxCell>
      </root>
    </mxGraphModel>
  </diagram>
  <diagram name="Copy of keep(z=&gt;&quot;z&quot;).x" id="xjMPlFAuR4ZDZ7bX4PYq">
    <mxGraphModel dx="1345" dy="835" grid="1" gridSize="10" guides="1" tooltips="1" connect="1" arrows="1" fold="1" page="1" pageScale="1" pageWidth="2339" pageHeight="3300" math="0" shadow="0">
      <root>
        <mxCell id="dnIXW3eOcuRQ0wwghWKn-0" />
        <mxCell id="dnIXW3eOcuRQ0wwghWKn-1" parent="dnIXW3eOcuRQ0wwghWKn-0" />
        <mxCell id="dnIXW3eOcuRQ0wwghWKn-2" style="edgeStyle=orthogonalEdgeStyle;rounded=0;orthogonalLoop=1;jettySize=auto;html=1;dashed=1;dashPattern=1 2;entryX=0;entryY=0.5;entryDx=0;entryDy=0;" edge="1" parent="dnIXW3eOcuRQ0wwghWKn-1" source="dnIXW3eOcuRQ0wwghWKn-3" target="dnIXW3eOcuRQ0wwghWKn-9">
          <mxGeometry relative="1" as="geometry">
            <mxPoint x="380" y="300" as="targetPoint" />
          </mxGeometry>
        </mxCell>
        <mxCell id="dnIXW3eOcuRQ0wwghWKn-3" value="" style="ellipse;whiteSpace=wrap;html=1;aspect=fixed;rounded=1;shadow=0;glass=0;sketch=0;align=left;fillColor=#d5e8d4;strokeColor=#82b366;" vertex="1" parent="dnIXW3eOcuRQ0wwghWKn-1">
          <mxGeometry x="260.0000000000001" y="240" width="40" height="40" as="geometry" />
        </mxCell>
        <mxCell id="dnIXW3eOcuRQ0wwghWKn-4" style="edgeStyle=orthogonalEdgeStyle;rounded=0;orthogonalLoop=1;jettySize=auto;html=1;entryX=0;entryY=0.5;entryDx=0;entryDy=0;dashed=1;dashPattern=1 2;" edge="1" parent="dnIXW3eOcuRQ0wwghWKn-1" source="dnIXW3eOcuRQ0wwghWKn-5" target="dnIXW3eOcuRQ0wwghWKn-7">
          <mxGeometry relative="1" as="geometry" />
        </mxCell>
        <mxCell id="dnIXW3eOcuRQ0wwghWKn-5" value="TupleOf&lt;br&gt;[:x]" style="ellipse;whiteSpace=wrap;html=1;fillColor=#b0e3e6;strokeColor=#0e8088;" vertex="1" parent="dnIXW3eOcuRQ0wwghWKn-1">
          <mxGeometry x="920.0000000000001" y="240" width="80" height="40" as="geometry" />
        </mxCell>
        <mxCell id="dnIXW3eOcuRQ0wwghWKn-6" style="edgeStyle=orthogonalEdgeStyle;rounded=0;orthogonalLoop=1;jettySize=auto;html=1;entryX=0;entryY=0.5;entryDx=0;entryDy=0;dashed=1;dashPattern=1 2;" edge="1" parent="dnIXW3eOcuRQ0wwghWKn-1" source="dnIXW3eOcuRQ0wwghWKn-7" target="dnIXW3eOcuRQ0wwghWKn-21">
          <mxGeometry relative="1" as="geometry" />
        </mxCell>
        <mxCell id="dnIXW3eOcuRQ0wwghWKn-7" value="BlockOf&lt;br&gt;x0toN" style="ellipse;whiteSpace=wrap;html=1;fillColor=#b0e3e6;strokeColor=#0e8088;" vertex="1" parent="dnIXW3eOcuRQ0wwghWKn-1">
          <mxGeometry x="1040" y="240" width="80" height="40" as="geometry" />
        </mxCell>
        <mxCell id="dnIXW3eOcuRQ0wwghWKn-8" style="edgeStyle=orthogonalEdgeStyle;rounded=0;orthogonalLoop=1;jettySize=auto;html=1;entryX=0;entryY=0.5;entryDx=0;entryDy=0;dashed=1;dashPattern=1 2;" edge="1" parent="dnIXW3eOcuRQ0wwghWKn-1" source="dnIXW3eOcuRQ0wwghWKn-9" target="dnIXW3eOcuRQ0wwghWKn-5">
          <mxGeometry relative="1" as="geometry" />
        </mxCell>
        <mxCell id="dnIXW3eOcuRQ0wwghWKn-9" value="BlockOf&lt;br&gt;x1to1" style="ellipse;whiteSpace=wrap;html=1;fillColor=#b0e3e6;strokeColor=#0e8088;" vertex="1" parent="dnIXW3eOcuRQ0wwghWKn-1">
          <mxGeometry x="800.0000000000001" y="240" width="80" height="40" as="geometry" />
        </mxCell>
        <mxCell id="dnIXW3eOcuRQ0wwghWKn-10" style="edgeStyle=orthogonalEdgeStyle;rounded=0;orthogonalLoop=1;jettySize=auto;html=1;entryX=0;entryY=0.5;entryDx=0;entryDy=0;dashed=1;dashPattern=1 2;" edge="1" parent="dnIXW3eOcuRQ0wwghWKn-1" source="dnIXW3eOcuRQ0wwghWKn-12" target="dnIXW3eOcuRQ0wwghWKn-17">
          <mxGeometry relative="1" as="geometry" />
        </mxCell>
        <mxCell id="dnIXW3eOcuRQ0wwghWKn-11" style="edgeStyle=orthogonalEdgeStyle;rounded=1;orthogonalLoop=1;jettySize=auto;html=1;entryX=0.5;entryY=1;entryDx=0;entryDy=0;exitX=0.5;exitY=0;exitDx=0;exitDy=0;" edge="1" parent="dnIXW3eOcuRQ0wwghWKn-1" source="dnIXW3eOcuRQ0wwghWKn-12" target="dnIXW3eOcuRQ0wwghWKn-3">
          <mxGeometry relative="1" as="geometry">
            <Array as="points">
              <mxPoint x="200" y="300" />
              <mxPoint x="280" y="300" />
            </Array>
          </mxGeometry>
        </mxCell>
        <mxCell id="dnIXW3eOcuRQ0wwghWKn-12" value="head" style="rounded=1;whiteSpace=wrap;html=1;fillColor=#fff2cc;strokeColor=#d6b656;" vertex="1" parent="dnIXW3eOcuRQ0wwghWKn-1">
          <mxGeometry x="180.00000000000017" y="320" width="40" height="40" as="geometry" />
        </mxCell>
        <mxCell id="dnIXW3eOcuRQ0wwghWKn-13" style="edgeStyle=orthogonalEdgeStyle;rounded=0;orthogonalLoop=1;jettySize=auto;html=1;exitX=1;exitY=0.5;exitDx=0;exitDy=0;entryX=0;entryY=0.5;entryDx=0;entryDy=0;dashed=1;dashPattern=1 2;" edge="1" parent="dnIXW3eOcuRQ0wwghWKn-1" source="dnIXW3eOcuRQ0wwghWKn-15" target="dnIXW3eOcuRQ0wwghWKn-27">
          <mxGeometry relative="1" as="geometry">
            <mxPoint x="800" y="420" as="targetPoint" />
          </mxGeometry>
        </mxCell>
        <mxCell id="dnIXW3eOcuRQ0wwghWKn-14" style="edgeStyle=orthogonalEdgeStyle;rounded=1;orthogonalLoop=1;jettySize=auto;html=1;entryX=0.5;entryY=1;entryDx=0;entryDy=0;" edge="1" parent="dnIXW3eOcuRQ0wwghWKn-1" source="dnIXW3eOcuRQ0wwghWKn-15" target="dnIXW3eOcuRQ0wwghWKn-3">
          <mxGeometry relative="1" as="geometry">
            <Array as="points">
              <mxPoint x="360" y="300" />
              <mxPoint x="280" y="300" />
            </Array>
          </mxGeometry>
        </mxCell>
        <mxCell id="dnIXW3eOcuRQ0wwghWKn-15" value="1" style="rounded=1;whiteSpace=wrap;html=1;fillColor=#fff2cc;strokeColor=#d6b656;" vertex="1" parent="dnIXW3eOcuRQ0wwghWKn-1">
          <mxGeometry x="340.00000000000017" y="400" width="40" height="40" as="geometry" />
        </mxCell>
        <mxCell id="dnIXW3eOcuRQ0wwghWKn-16" style="edgeStyle=orthogonalEdgeStyle;rounded=0;orthogonalLoop=1;jettySize=auto;html=1;entryX=0;entryY=0.5;entryDx=0;entryDy=0;dashed=1;dashPattern=1 2;" edge="1" parent="dnIXW3eOcuRQ0wwghWKn-1" source="dnIXW3eOcuRQ0wwghWKn-17" target="dnIXW3eOcuRQ0wwghWKn-18">
          <mxGeometry relative="1" as="geometry" />
        </mxCell>
        <mxCell id="dnIXW3eOcuRQ0wwghWKn-17" value="BlockOf&lt;br&gt;x1to1" style="ellipse;whiteSpace=wrap;html=1;fillColor=#b0e3e6;strokeColor=#0e8088;" vertex="1" parent="dnIXW3eOcuRQ0wwghWKn-1">
          <mxGeometry x="800.0000000000001" y="320" width="80" height="40" as="geometry" />
        </mxCell>
        <mxCell id="dnIXW3eOcuRQ0wwghWKn-18" value="" style="ellipse;whiteSpace=wrap;html=1;dashed=1;" vertex="1" parent="dnIXW3eOcuRQ0wwghWKn-1">
          <mxGeometry x="920" y="320" width="80" height="40" as="geometry" />
        </mxCell>
        <mxCell id="dnIXW3eOcuRQ0wwghWKn-20" style="edgeStyle=orthogonalEdgeStyle;rounded=0;orthogonalLoop=1;jettySize=auto;html=1;entryX=0;entryY=0.5;entryDx=0;entryDy=0;dashed=1;dashPattern=1 2;" edge="1" parent="dnIXW3eOcuRQ0wwghWKn-1" source="dnIXW3eOcuRQ0wwghWKn-21" target="dnIXW3eOcuRQ0wwghWKn-22">
          <mxGeometry relative="1" as="geometry" />
        </mxCell>
        <mxCell id="dnIXW3eOcuRQ0wwghWKn-21" value="TupleOf&lt;br&gt;[:y]" style="ellipse;whiteSpace=wrap;html=1;fillColor=#b0e3e6;strokeColor=#0e8088;" vertex="1" parent="dnIXW3eOcuRQ0wwghWKn-1">
          <mxGeometry x="1160" y="240" width="80" height="40" as="geometry" />
        </mxCell>
        <mxCell id="dnIXW3eOcuRQ0wwghWKn-22" value="Int" style="ellipse;whiteSpace=wrap;html=1;fillColor=#f5f5f5;strokeColor=#666666;fontColor=#333333;" vertex="1" parent="dnIXW3eOcuRQ0wwghWKn-1">
          <mxGeometry x="1280" y="240" width="80" height="40" as="geometry" />
        </mxCell>
        <mxCell id="dnIXW3eOcuRQ0wwghWKn-23" style="edgeStyle=orthogonalEdgeStyle;rounded=1;orthogonalLoop=1;jettySize=auto;html=1;exitX=1;exitY=0.5;exitDx=0;exitDy=0;entryX=0;entryY=0.5;entryDx=0;entryDy=0;dashed=1;dashPattern=1 2;" edge="1" parent="dnIXW3eOcuRQ0wwghWKn-1" source="dnIXW3eOcuRQ0wwghWKn-24" target="dnIXW3eOcuRQ0wwghWKn-25">
          <mxGeometry relative="1" as="geometry" />
        </mxCell>
        <mxCell id="l8tiVjqKVGjIRyO1hld--2" style="edgeStyle=orthogonalEdgeStyle;rounded=1;orthogonalLoop=1;jettySize=auto;html=1;entryX=0.5;entryY=1;entryDx=0;entryDy=0;" edge="1" parent="dnIXW3eOcuRQ0wwghWKn-1" source="dnIXW3eOcuRQ0wwghWKn-24" target="dnIXW3eOcuRQ0wwghWKn-15">
          <mxGeometry relative="1" as="geometry">
            <Array as="points">
              <mxPoint x="360" y="470" />
              <mxPoint x="360" y="470" />
            </Array>
          </mxGeometry>
        </mxCell>
        <mxCell id="dnIXW3eOcuRQ0wwghWKn-24" value="" style="ellipse;whiteSpace=wrap;html=1;aspect=fixed;rounded=1;shadow=0;glass=0;sketch=0;align=left;fillColor=#fff2cc;strokeColor=#d6b656;" vertex="1" parent="dnIXW3eOcuRQ0wwghWKn-1">
          <mxGeometry x="350" y="490" width="20" height="20" as="geometry" />
        </mxCell>
        <mxCell id="dnIXW3eOcuRQ0wwghWKn-25" value="" style="ellipse;whiteSpace=wrap;html=1;dashed=1;" vertex="1" parent="dnIXW3eOcuRQ0wwghWKn-1">
          <mxGeometry x="800" y="480" width="80" height="40" as="geometry" />
        </mxCell>
        <mxCell id="dnIXW3eOcuRQ0wwghWKn-26" style="edgeStyle=orthogonalEdgeStyle;rounded=0;orthogonalLoop=1;jettySize=auto;html=1;entryX=0;entryY=0.5;entryDx=0;entryDy=0;dashed=1;dashPattern=1 2;" edge="1" parent="dnIXW3eOcuRQ0wwghWKn-1" source="dnIXW3eOcuRQ0wwghWKn-27" target="dnIXW3eOcuRQ0wwghWKn-29">
          <mxGeometry relative="1" as="geometry" />
        </mxCell>
        <mxCell id="dnIXW3eOcuRQ0wwghWKn-27" value="TupleOf&lt;br&gt;[:x]" style="ellipse;whiteSpace=wrap;html=1;fillColor=#b0e3e6;strokeColor=#0e8088;" vertex="1" parent="dnIXW3eOcuRQ0wwghWKn-1">
          <mxGeometry x="800.0000000000001" y="400" width="80" height="40" as="geometry" />
        </mxCell>
        <mxCell id="dnIXW3eOcuRQ0wwghWKn-28" style="edgeStyle=orthogonalEdgeStyle;rounded=0;orthogonalLoop=1;jettySize=auto;html=1;entryX=0;entryY=0.5;entryDx=0;entryDy=0;dashed=1;dashPattern=1 2;" edge="1" parent="dnIXW3eOcuRQ0wwghWKn-1" source="dnIXW3eOcuRQ0wwghWKn-29" target="dnIXW3eOcuRQ0wwghWKn-31">
          <mxGeometry relative="1" as="geometry" />
        </mxCell>
        <mxCell id="dnIXW3eOcuRQ0wwghWKn-29" value="BlockOf&lt;br&gt;x0toN" style="ellipse;whiteSpace=wrap;html=1;fillColor=#b0e3e6;strokeColor=#0e8088;" vertex="1" parent="dnIXW3eOcuRQ0wwghWKn-1">
          <mxGeometry x="920" y="400" width="80" height="40" as="geometry" />
        </mxCell>
        <mxCell id="dnIXW3eOcuRQ0wwghWKn-30" style="edgeStyle=orthogonalEdgeStyle;rounded=0;orthogonalLoop=1;jettySize=auto;html=1;entryX=0;entryY=0.5;entryDx=0;entryDy=0;dashed=1;dashPattern=1 2;" edge="1" parent="dnIXW3eOcuRQ0wwghWKn-1" source="dnIXW3eOcuRQ0wwghWKn-31" target="dnIXW3eOcuRQ0wwghWKn-32">
          <mxGeometry relative="1" as="geometry" />
        </mxCell>
        <mxCell id="dnIXW3eOcuRQ0wwghWKn-31" value="TupleOf&lt;br&gt;[:y]" style="ellipse;whiteSpace=wrap;html=1;fillColor=#b0e3e6;strokeColor=#0e8088;" vertex="1" parent="dnIXW3eOcuRQ0wwghWKn-1">
          <mxGeometry x="1040" y="400" width="80" height="40" as="geometry" />
        </mxCell>
        <mxCell id="dnIXW3eOcuRQ0wwghWKn-32" value="Int" style="ellipse;whiteSpace=wrap;html=1;fillColor=#f5f5f5;strokeColor=#666666;fontColor=#333333;" vertex="1" parent="dnIXW3eOcuRQ0wwghWKn-1">
          <mxGeometry x="1160" y="400" width="80" height="40" as="geometry" />
        </mxCell>
        <mxCell id="dnIXW3eOcuRQ0wwghWKn-42" style="edgeStyle=orthogonalEdgeStyle;rounded=1;orthogonalLoop=1;jettySize=auto;html=1;entryX=0;entryY=0.5;entryDx=0;entryDy=0;dashed=1;dashPattern=1 2;" edge="1" parent="dnIXW3eOcuRQ0wwghWKn-1" source="dnIXW3eOcuRQ0wwghWKn-43" target="dnIXW3eOcuRQ0wwghWKn-51">
          <mxGeometry relative="1" as="geometry" />
        </mxCell>
        <mxCell id="l8tiVjqKVGjIRyO1hld--0" style="edgeStyle=orthogonalEdgeStyle;rounded=1;orthogonalLoop=1;jettySize=auto;html=1;entryX=0.5;entryY=1;entryDx=0;entryDy=0;" edge="1" parent="dnIXW3eOcuRQ0wwghWKn-1" source="dnIXW3eOcuRQ0wwghWKn-43" target="dnIXW3eOcuRQ0wwghWKn-120">
          <mxGeometry relative="1" as="geometry" />
        </mxCell>
        <mxCell id="dnIXW3eOcuRQ0wwghWKn-43" value="head" style="rounded=1;whiteSpace=wrap;html=1;fillColor=#fff2cc;strokeColor=#d6b656;" vertex="1" parent="dnIXW3eOcuRQ0wwghWKn-1">
          <mxGeometry x="420.00000000000017" y="880" width="40" height="40" as="geometry" />
        </mxCell>
        <mxCell id="dnIXW3eOcuRQ0wwghWKn-44" style="edgeStyle=orthogonalEdgeStyle;rounded=1;orthogonalLoop=1;jettySize=auto;html=1;entryX=0.5;entryY=1;entryDx=0;entryDy=0;" edge="1" parent="dnIXW3eOcuRQ0wwghWKn-1" source="dnIXW3eOcuRQ0wwghWKn-46" target="dnIXW3eOcuRQ0wwghWKn-120">
          <mxGeometry relative="1" as="geometry">
            <Array as="points">
              <mxPoint x="520" y="860" />
              <mxPoint x="440" y="860" />
            </Array>
            <mxPoint x="440" y="840" as="targetPoint" />
          </mxGeometry>
        </mxCell>
        <mxCell id="dnIXW3eOcuRQ0wwghWKn-45" style="edgeStyle=orthogonalEdgeStyle;rounded=1;orthogonalLoop=1;jettySize=auto;html=1;entryX=0;entryY=0.5;entryDx=0;entryDy=0;dashed=1;dashPattern=1 2;" edge="1" parent="dnIXW3eOcuRQ0wwghWKn-1" source="dnIXW3eOcuRQ0wwghWKn-46" target="dnIXW3eOcuRQ0wwghWKn-48">
          <mxGeometry relative="1" as="geometry" />
        </mxCell>
        <mxCell id="dnIXW3eOcuRQ0wwghWKn-46" value="1" style="rounded=1;whiteSpace=wrap;html=1;fillColor=#fff2cc;strokeColor=#d6b656;" vertex="1" parent="dnIXW3eOcuRQ0wwghWKn-1">
          <mxGeometry x="500.00000000000017" y="960" width="40" height="40" as="geometry" />
        </mxCell>
        <mxCell id="dnIXW3eOcuRQ0wwghWKn-47" style="edgeStyle=orthogonalEdgeStyle;rounded=0;orthogonalLoop=1;jettySize=auto;html=1;entryX=0;entryY=0.5;entryDx=0;entryDy=0;dashed=1;dashPattern=1 2;" edge="1" parent="dnIXW3eOcuRQ0wwghWKn-1" source="dnIXW3eOcuRQ0wwghWKn-48" target="dnIXW3eOcuRQ0wwghWKn-49">
          <mxGeometry relative="1" as="geometry" />
        </mxCell>
        <mxCell id="dnIXW3eOcuRQ0wwghWKn-48" value="TupleOf&lt;br&gt;[:y]" style="ellipse;whiteSpace=wrap;html=1;fillColor=#b0e3e6;strokeColor=#0e8088;" vertex="1" parent="dnIXW3eOcuRQ0wwghWKn-1">
          <mxGeometry x="800" y="960" width="80" height="40" as="geometry" />
        </mxCell>
        <mxCell id="dnIXW3eOcuRQ0wwghWKn-49" value="Int" style="ellipse;whiteSpace=wrap;html=1;fillColor=#f5f5f5;strokeColor=#666666;fontColor=#333333;" vertex="1" parent="dnIXW3eOcuRQ0wwghWKn-1">
          <mxGeometry x="920" y="960" width="80" height="40" as="geometry" />
        </mxCell>
        <mxCell id="dnIXW3eOcuRQ0wwghWKn-50" style="edgeStyle=orthogonalEdgeStyle;rounded=1;orthogonalLoop=1;jettySize=auto;html=1;entryX=0;entryY=0.5;entryDx=0;entryDy=0;dashed=1;dashPattern=1 2;" edge="1" parent="dnIXW3eOcuRQ0wwghWKn-1" source="dnIXW3eOcuRQ0wwghWKn-51" target="dnIXW3eOcuRQ0wwghWKn-52">
          <mxGeometry relative="1" as="geometry" />
        </mxCell>
        <mxCell id="dnIXW3eOcuRQ0wwghWKn-51" value="BlockOf&lt;br&gt;x0toN" style="ellipse;whiteSpace=wrap;html=1;fillColor=#b0e3e6;strokeColor=#0e8088;" vertex="1" parent="dnIXW3eOcuRQ0wwghWKn-1">
          <mxGeometry x="800" y="880" width="80" height="40" as="geometry" />
        </mxCell>
        <mxCell id="dnIXW3eOcuRQ0wwghWKn-52" value="" style="ellipse;whiteSpace=wrap;html=1;dashed=1;" vertex="1" parent="dnIXW3eOcuRQ0wwghWKn-1">
          <mxGeometry x="920" y="880" width="80" height="40" as="geometry" />
        </mxCell>
        <mxCell id="dnIXW3eOcuRQ0wwghWKn-54" style="edgeStyle=orthogonalEdgeStyle;rounded=1;orthogonalLoop=1;jettySize=auto;html=1;entryX=0;entryY=0.5;entryDx=0;entryDy=0;dashed=1;dashPattern=1 2;" edge="1" parent="dnIXW3eOcuRQ0wwghWKn-1" source="dnIXW3eOcuRQ0wwghWKn-55" target="dnIXW3eOcuRQ0wwghWKn-58">
          <mxGeometry relative="1" as="geometry" />
        </mxCell>
        <mxCell id="l8tiVjqKVGjIRyO1hld--1" style="edgeStyle=orthogonalEdgeStyle;rounded=1;orthogonalLoop=1;jettySize=auto;html=1;entryX=0.5;entryY=1;entryDx=0;entryDy=0;" edge="1" parent="dnIXW3eOcuRQ0wwghWKn-1" source="dnIXW3eOcuRQ0wwghWKn-55" target="dnIXW3eOcuRQ0wwghWKn-24">
          <mxGeometry relative="1" as="geometry">
            <Array as="points">
              <mxPoint x="280" y="540" />
              <mxPoint x="360" y="540" />
            </Array>
          </mxGeometry>
        </mxCell>
        <mxCell id="dnIXW3eOcuRQ0wwghWKn-55" value="tuple_of(2)" style="rounded=1;whiteSpace=wrap;html=1;fillColor=#d5e8d4;strokeColor=#82b366;" vertex="1" parent="dnIXW3eOcuRQ0wwghWKn-1">
          <mxGeometry x="240" y="1040" width="80" height="40" as="geometry" />
        </mxCell>
        <mxCell id="dnIXW3eOcuRQ0wwghWKn-56" style="edgeStyle=orthogonalEdgeStyle;rounded=1;orthogonalLoop=1;jettySize=auto;html=1;entryX=0;entryY=0.5;entryDx=0;entryDy=0;dashed=1;dashPattern=1 2;" edge="1" parent="dnIXW3eOcuRQ0wwghWKn-1" source="dnIXW3eOcuRQ0wwghWKn-58" target="dnIXW3eOcuRQ0wwghWKn-72">
          <mxGeometry relative="1" as="geometry" />
        </mxCell>
        <mxCell id="dnIXW3eOcuRQ0wwghWKn-57" style="edgeStyle=orthogonalEdgeStyle;rounded=1;orthogonalLoop=1;jettySize=auto;html=1;entryX=0;entryY=0.5;entryDx=0;entryDy=0;dashed=1;dashPattern=1 2;" edge="1" parent="dnIXW3eOcuRQ0wwghWKn-1" source="dnIXW3eOcuRQ0wwghWKn-58" target="dnIXW3eOcuRQ0wwghWKn-59">
          <mxGeometry relative="1" as="geometry" />
        </mxCell>
        <mxCell id="dnIXW3eOcuRQ0wwghWKn-58" value="TupleOf" style="ellipse;whiteSpace=wrap;html=1;fillColor=#b0e3e6;strokeColor=#0e8088;" vertex="1" parent="dnIXW3eOcuRQ0wwghWKn-1">
          <mxGeometry x="800" y="1040" width="80" height="40" as="geometry" />
        </mxCell>
        <mxCell id="dnIXW3eOcuRQ0wwghWKn-59" value="" style="ellipse;whiteSpace=wrap;html=1;dashed=1;" vertex="1" parent="dnIXW3eOcuRQ0wwghWKn-1">
          <mxGeometry x="920" y="1050" width="80" height="40" as="geometry" />
        </mxCell>
        <mxCell id="dnIXW3eOcuRQ0wwghWKn-60" style="edgeStyle=orthogonalEdgeStyle;rounded=1;orthogonalLoop=1;jettySize=auto;html=1;entryX=0.5;entryY=1;entryDx=0;entryDy=0;" edge="1" parent="dnIXW3eOcuRQ0wwghWKn-1" source="dnIXW3eOcuRQ0wwghWKn-64" target="dnIXW3eOcuRQ0wwghWKn-55">
          <mxGeometry relative="1" as="geometry" />
        </mxCell>
        <mxCell id="dnIXW3eOcuRQ0wwghWKn-61" style="edgeStyle=orthogonalEdgeStyle;rounded=1;orthogonalLoop=1;jettySize=auto;html=1;entryX=0.5;entryY=1;entryDx=0;entryDy=0;" edge="1" parent="dnIXW3eOcuRQ0wwghWKn-1" source="dnIXW3eOcuRQ0wwghWKn-64" target="dnIXW3eOcuRQ0wwghWKn-43">
          <mxGeometry relative="1" as="geometry" />
        </mxCell>
        <mxCell id="dnIXW3eOcuRQ0wwghWKn-63" style="edgeStyle=orthogonalEdgeStyle;rounded=1;orthogonalLoop=1;jettySize=auto;html=1;entryX=0;entryY=0.5;entryDx=0;entryDy=0;dashed=1;dashPattern=1 2;" edge="1" parent="dnIXW3eOcuRQ0wwghWKn-1" source="dnIXW3eOcuRQ0wwghWKn-64" target="dnIXW3eOcuRQ0wwghWKn-67">
          <mxGeometry relative="1" as="geometry" />
        </mxCell>
        <mxCell id="l8tiVjqKVGjIRyO1hld--3" style="edgeStyle=orthogonalEdgeStyle;rounded=1;orthogonalLoop=1;jettySize=auto;html=1;entryX=0.5;entryY=1;entryDx=0;entryDy=0;" edge="1" parent="dnIXW3eOcuRQ0wwghWKn-1" source="dnIXW3eOcuRQ0wwghWKn-64" target="dnIXW3eOcuRQ0wwghWKn-24">
          <mxGeometry relative="1" as="geometry" />
        </mxCell>
        <mxCell id="dnIXW3eOcuRQ0wwghWKn-64" value="" style="rounded=0;whiteSpace=wrap;html=1;fillColor=#dae8fc;strokeColor=#6c8ebf;" vertex="1" parent="dnIXW3eOcuRQ0wwghWKn-1">
          <mxGeometry x="349.99999999999994" y="1130" width="20" height="20" as="geometry" />
        </mxCell>
        <mxCell id="dnIXW3eOcuRQ0wwghWKn-65" style="edgeStyle=orthogonalEdgeStyle;rounded=1;orthogonalLoop=1;jettySize=auto;html=1;entryX=0;entryY=0.5;entryDx=0;entryDy=0;dashed=1;dashPattern=1 2;" edge="1" parent="dnIXW3eOcuRQ0wwghWKn-1" source="dnIXW3eOcuRQ0wwghWKn-67" target="dnIXW3eOcuRQ0wwghWKn-70">
          <mxGeometry relative="1" as="geometry">
            <mxPoint x="920" y="1130" as="targetPoint" />
          </mxGeometry>
        </mxCell>
        <mxCell id="dnIXW3eOcuRQ0wwghWKn-66" style="edgeStyle=orthogonalEdgeStyle;rounded=1;orthogonalLoop=1;jettySize=auto;html=1;entryX=0;entryY=0.5;entryDx=0;entryDy=0;dashed=1;dashPattern=1 2;" edge="1" parent="dnIXW3eOcuRQ0wwghWKn-1" source="dnIXW3eOcuRQ0wwghWKn-67" target="dnIXW3eOcuRQ0wwghWKn-68">
          <mxGeometry relative="1" as="geometry" />
        </mxCell>
        <mxCell id="dnIXW3eOcuRQ0wwghWKn-67" value="TupleOf" style="ellipse;whiteSpace=wrap;html=1;fillColor=#b0e3e6;strokeColor=#0e8088;" vertex="1" parent="dnIXW3eOcuRQ0wwghWKn-1">
          <mxGeometry x="800" y="1120" width="80" height="40" as="geometry" />
        </mxCell>
        <mxCell id="dnIXW3eOcuRQ0wwghWKn-68" value="" style="ellipse;whiteSpace=wrap;html=1;dashed=1;" vertex="1" parent="dnIXW3eOcuRQ0wwghWKn-1">
          <mxGeometry x="920" y="1130" width="80" height="40" as="geometry" />
        </mxCell>
        <mxCell id="dnIXW3eOcuRQ0wwghWKn-69" style="edgeStyle=orthogonalEdgeStyle;rounded=1;orthogonalLoop=1;jettySize=auto;html=1;entryX=0;entryY=0.5;entryDx=0;entryDy=0;dashed=1;dashPattern=1 2;" edge="1" parent="dnIXW3eOcuRQ0wwghWKn-1" source="dnIXW3eOcuRQ0wwghWKn-70" target="dnIXW3eOcuRQ0wwghWKn-71">
          <mxGeometry relative="1" as="geometry" />
        </mxCell>
        <mxCell id="dnIXW3eOcuRQ0wwghWKn-70" value="BlockOf&lt;br&gt;x0toN" style="ellipse;whiteSpace=wrap;html=1;fillColor=#b0e3e6;strokeColor=#0e8088;" vertex="1" parent="dnIXW3eOcuRQ0wwghWKn-1">
          <mxGeometry x="920" y="1110" width="80" height="40" as="geometry" />
        </mxCell>
        <mxCell id="dnIXW3eOcuRQ0wwghWKn-71" value="" style="ellipse;whiteSpace=wrap;html=1;dashed=1;" vertex="1" parent="dnIXW3eOcuRQ0wwghWKn-1">
          <mxGeometry x="1040" y="1110" width="80" height="40" as="geometry" />
        </mxCell>
        <mxCell id="dnIXW3eOcuRQ0wwghWKn-72" value="" style="ellipse;whiteSpace=wrap;html=1;dashed=1;" vertex="1" parent="dnIXW3eOcuRQ0wwghWKn-1">
          <mxGeometry x="920" y="1030" width="80" height="40" as="geometry" />
        </mxCell>
        <mxCell id="dnIXW3eOcuRQ0wwghWKn-73" style="edgeStyle=orthogonalEdgeStyle;rounded=1;orthogonalLoop=1;jettySize=auto;html=1;entryX=0;entryY=0.5;entryDx=0;entryDy=0;dashed=1;dashPattern=1 2;" edge="1" parent="dnIXW3eOcuRQ0wwghWKn-1" source="dnIXW3eOcuRQ0wwghWKn-76" target="dnIXW3eOcuRQ0wwghWKn-78">
          <mxGeometry relative="1" as="geometry" />
        </mxCell>
        <mxCell id="dnIXW3eOcuRQ0wwghWKn-74" style="edgeStyle=orthogonalEdgeStyle;rounded=1;orthogonalLoop=1;jettySize=auto;html=1;entryX=0.5;entryY=1;entryDx=0;entryDy=0;" edge="1" parent="dnIXW3eOcuRQ0wwghWKn-1" source="dnIXW3eOcuRQ0wwghWKn-76" target="dnIXW3eOcuRQ0wwghWKn-64">
          <mxGeometry relative="1" as="geometry" />
        </mxCell>
        <mxCell id="dnIXW3eOcuRQ0wwghWKn-75" value="" style="edgeStyle=orthogonalEdgeStyle;rounded=1;orthogonalLoop=1;jettySize=auto;html=1;dashed=1;dashPattern=1 2;" edge="1" parent="dnIXW3eOcuRQ0wwghWKn-1" source="dnIXW3eOcuRQ0wwghWKn-76" target="dnIXW3eOcuRQ0wwghWKn-64">
          <mxGeometry relative="1" as="geometry" />
        </mxCell>
        <mxCell id="dnIXW3eOcuRQ0wwghWKn-76" value="distribute(1)" style="rounded=1;whiteSpace=wrap;html=1;fillColor=#d5e8d4;strokeColor=#82b366;" vertex="1" parent="dnIXW3eOcuRQ0wwghWKn-1">
          <mxGeometry x="320" y="1200" width="80" height="40" as="geometry" />
        </mxCell>
        <mxCell id="dnIXW3eOcuRQ0wwghWKn-77" style="edgeStyle=orthogonalEdgeStyle;rounded=1;orthogonalLoop=1;jettySize=auto;html=1;entryX=0;entryY=0.5;entryDx=0;entryDy=0;dashed=1;dashPattern=1 2;" edge="1" parent="dnIXW3eOcuRQ0wwghWKn-1" source="dnIXW3eOcuRQ0wwghWKn-78" target="dnIXW3eOcuRQ0wwghWKn-81">
          <mxGeometry relative="1" as="geometry" />
        </mxCell>
        <mxCell id="dnIXW3eOcuRQ0wwghWKn-78" value="BlockOf&lt;br&gt;x0toN" style="ellipse;whiteSpace=wrap;html=1;fillColor=#b0e3e6;strokeColor=#0e8088;" vertex="1" parent="dnIXW3eOcuRQ0wwghWKn-1">
          <mxGeometry x="800" y="1200" width="80" height="40" as="geometry" />
        </mxCell>
        <mxCell id="dnIXW3eOcuRQ0wwghWKn-79" style="edgeStyle=orthogonalEdgeStyle;rounded=1;orthogonalLoop=1;jettySize=auto;html=1;entryX=0;entryY=0.5;entryDx=0;entryDy=0;dashed=1;dashPattern=1 2;" edge="1" parent="dnIXW3eOcuRQ0wwghWKn-1" source="dnIXW3eOcuRQ0wwghWKn-81" target="dnIXW3eOcuRQ0wwghWKn-83">
          <mxGeometry relative="1" as="geometry" />
        </mxCell>
        <mxCell id="dnIXW3eOcuRQ0wwghWKn-80" style="edgeStyle=orthogonalEdgeStyle;rounded=1;orthogonalLoop=1;jettySize=auto;html=1;entryX=0;entryY=0.5;entryDx=0;entryDy=0;dashed=1;dashPattern=1 2;" edge="1" parent="dnIXW3eOcuRQ0wwghWKn-1" source="dnIXW3eOcuRQ0wwghWKn-81" target="dnIXW3eOcuRQ0wwghWKn-82">
          <mxGeometry relative="1" as="geometry" />
        </mxCell>
        <mxCell id="dnIXW3eOcuRQ0wwghWKn-81" value="TupleOf" style="ellipse;whiteSpace=wrap;html=1;fillColor=#b0e3e6;strokeColor=#0e8088;" vertex="1" parent="dnIXW3eOcuRQ0wwghWKn-1">
          <mxGeometry x="920" y="1200" width="80" height="40" as="geometry" />
        </mxCell>
        <mxCell id="dnIXW3eOcuRQ0wwghWKn-82" value="" style="ellipse;whiteSpace=wrap;html=1;dashed=1;" vertex="1" parent="dnIXW3eOcuRQ0wwghWKn-1">
          <mxGeometry x="1040" y="1210" width="80" height="40" as="geometry" />
        </mxCell>
        <mxCell id="dnIXW3eOcuRQ0wwghWKn-83" value="" style="ellipse;whiteSpace=wrap;html=1;dashed=1;" vertex="1" parent="dnIXW3eOcuRQ0wwghWKn-1">
          <mxGeometry x="1040" y="1190" width="80" height="40" as="geometry" />
        </mxCell>
        <mxCell id="dnIXW3eOcuRQ0wwghWKn-84" style="edgeStyle=orthogonalEdgeStyle;rounded=1;orthogonalLoop=1;jettySize=auto;html=1;entryX=0.5;entryY=1;entryDx=0;entryDy=0;" edge="1" parent="dnIXW3eOcuRQ0wwghWKn-1" source="dnIXW3eOcuRQ0wwghWKn-86" target="dnIXW3eOcuRQ0wwghWKn-90">
          <mxGeometry relative="1" as="geometry" />
        </mxCell>
        <mxCell id="dnIXW3eOcuRQ0wwghWKn-85" style="edgeStyle=orthogonalEdgeStyle;rounded=1;orthogonalLoop=1;jettySize=auto;html=1;entryX=0;entryY=0.5;entryDx=0;entryDy=0;dashed=1;dashPattern=1 2;" edge="1" parent="dnIXW3eOcuRQ0wwghWKn-1" source="dnIXW3eOcuRQ0wwghWKn-86" target="dnIXW3eOcuRQ0wwghWKn-97">
          <mxGeometry relative="1" as="geometry" />
        </mxCell>
        <mxCell id="dnIXW3eOcuRQ0wwghWKn-86" value="flatten()" style="rounded=1;whiteSpace=wrap;html=1;fillColor=#d5e8d4;strokeColor=#82b366;" vertex="1" parent="dnIXW3eOcuRQ0wwghWKn-1">
          <mxGeometry x="160" y="1680" width="80" height="40" as="geometry" />
        </mxCell>
        <mxCell id="dnIXW3eOcuRQ0wwghWKn-87" style="edgeStyle=orthogonalEdgeStyle;rounded=1;orthogonalLoop=1;jettySize=auto;html=1;entryX=0;entryY=0.5;entryDx=0;entryDy=0;dashed=1;dashPattern=1 2;" edge="1" parent="dnIXW3eOcuRQ0wwghWKn-1" source="dnIXW3eOcuRQ0wwghWKn-90" target="dnIXW3eOcuRQ0wwghWKn-92">
          <mxGeometry relative="1" as="geometry" />
        </mxCell>
        <mxCell id="dnIXW3eOcuRQ0wwghWKn-88" style="edgeStyle=orthogonalEdgeStyle;rounded=1;orthogonalLoop=1;jettySize=auto;html=1;entryX=0.5;entryY=1;entryDx=0;entryDy=0;" edge="1" parent="dnIXW3eOcuRQ0wwghWKn-1" source="dnIXW3eOcuRQ0wwghWKn-90" target="dnIXW3eOcuRQ0wwghWKn-12">
          <mxGeometry relative="1" as="geometry" />
        </mxCell>
        <mxCell id="dnIXW3eOcuRQ0wwghWKn-89" style="edgeStyle=orthogonalEdgeStyle;rounded=1;orthogonalLoop=1;jettySize=auto;html=1;entryX=0.5;entryY=1;entryDx=0;entryDy=0;" edge="1" parent="dnIXW3eOcuRQ0wwghWKn-1" source="dnIXW3eOcuRQ0wwghWKn-90" target="dnIXW3eOcuRQ0wwghWKn-101">
          <mxGeometry relative="1" as="geometry" />
        </mxCell>
        <mxCell id="dnIXW3eOcuRQ0wwghWKn-90" value="" style="rounded=0;whiteSpace=wrap;html=1;fillColor=#dae8fc;strokeColor=#6c8ebf;" vertex="1" parent="dnIXW3eOcuRQ0wwghWKn-1">
          <mxGeometry x="189.99999999999994" y="1610" width="20" height="20" as="geometry" />
        </mxCell>
        <mxCell id="dnIXW3eOcuRQ0wwghWKn-91" style="edgeStyle=orthogonalEdgeStyle;rounded=1;orthogonalLoop=1;jettySize=auto;html=1;exitX=1;exitY=0.5;exitDx=0;exitDy=0;entryX=0;entryY=0.5;entryDx=0;entryDy=0;dashed=1;dashPattern=1 2;" edge="1" parent="dnIXW3eOcuRQ0wwghWKn-1" source="dnIXW3eOcuRQ0wwghWKn-92" target="dnIXW3eOcuRQ0wwghWKn-94">
          <mxGeometry relative="1" as="geometry" />
        </mxCell>
        <mxCell id="dnIXW3eOcuRQ0wwghWKn-92" value="BlockOf&lt;br&gt;x1to1" style="ellipse;whiteSpace=wrap;html=1;fillColor=#b0e3e6;strokeColor=#0e8088;" vertex="1" parent="dnIXW3eOcuRQ0wwghWKn-1">
          <mxGeometry x="800.0000000000001" y="1600" width="80" height="40" as="geometry" />
        </mxCell>
        <mxCell id="dnIXW3eOcuRQ0wwghWKn-93" style="edgeStyle=orthogonalEdgeStyle;rounded=1;orthogonalLoop=1;jettySize=auto;html=1;entryX=0;entryY=0.5;entryDx=0;entryDy=0;dashed=1;dashPattern=1 2;" edge="1" parent="dnIXW3eOcuRQ0wwghWKn-1" source="dnIXW3eOcuRQ0wwghWKn-94" target="dnIXW3eOcuRQ0wwghWKn-95">
          <mxGeometry relative="1" as="geometry" />
        </mxCell>
        <mxCell id="dnIXW3eOcuRQ0wwghWKn-94" value="BlockOf&lt;br&gt;x0toN" style="ellipse;whiteSpace=wrap;html=1;fillColor=#b0e3e6;strokeColor=#0e8088;" vertex="1" parent="dnIXW3eOcuRQ0wwghWKn-1">
          <mxGeometry x="920.0000000000001" y="1600" width="80" height="40" as="geometry" />
        </mxCell>
        <mxCell id="dnIXW3eOcuRQ0wwghWKn-95" value="" style="ellipse;whiteSpace=wrap;html=1;dashed=1;" vertex="1" parent="dnIXW3eOcuRQ0wwghWKn-1">
          <mxGeometry x="1040" y="1600" width="80" height="40" as="geometry" />
        </mxCell>
        <mxCell id="dnIXW3eOcuRQ0wwghWKn-96" style="edgeStyle=orthogonalEdgeStyle;rounded=1;orthogonalLoop=1;jettySize=auto;html=1;entryX=0;entryY=0.5;entryDx=0;entryDy=0;dashed=1;dashPattern=1 2;" edge="1" parent="dnIXW3eOcuRQ0wwghWKn-1" source="dnIXW3eOcuRQ0wwghWKn-97" target="dnIXW3eOcuRQ0wwghWKn-98">
          <mxGeometry relative="1" as="geometry" />
        </mxCell>
        <mxCell id="dnIXW3eOcuRQ0wwghWKn-97" value="BlockOf&lt;br&gt;x0toN" style="ellipse;whiteSpace=wrap;html=1;fillColor=#b0e3e6;strokeColor=#0e8088;" vertex="1" parent="dnIXW3eOcuRQ0wwghWKn-1">
          <mxGeometry x="800.0000000000001" y="1680" width="80" height="40" as="geometry" />
        </mxCell>
        <mxCell id="dnIXW3eOcuRQ0wwghWKn-98" value="" style="ellipse;whiteSpace=wrap;html=1;dashed=1;" vertex="1" parent="dnIXW3eOcuRQ0wwghWKn-1">
          <mxGeometry x="920" y="1680" width="80" height="40" as="geometry" />
        </mxCell>
        <mxCell id="dnIXW3eOcuRQ0wwghWKn-99" style="edgeStyle=orthogonalEdgeStyle;rounded=1;orthogonalLoop=1;jettySize=auto;html=1;entryX=0;entryY=0.5;entryDx=0;entryDy=0;dashed=1;dashPattern=1 2;" edge="1" parent="dnIXW3eOcuRQ0wwghWKn-1" source="dnIXW3eOcuRQ0wwghWKn-101" target="dnIXW3eOcuRQ0wwghWKn-103">
          <mxGeometry relative="1" as="geometry" />
        </mxCell>
        <mxCell id="dnIXW3eOcuRQ0wwghWKn-100" style="edgeStyle=orthogonalEdgeStyle;rounded=1;orthogonalLoop=1;jettySize=auto;html=1;entryX=0.5;entryY=1;entryDx=0;entryDy=0;" edge="1" parent="dnIXW3eOcuRQ0wwghWKn-1" source="dnIXW3eOcuRQ0wwghWKn-101" target="dnIXW3eOcuRQ0wwghWKn-76">
          <mxGeometry relative="1" as="geometry" />
        </mxCell>
        <mxCell id="dnIXW3eOcuRQ0wwghWKn-101" value="head" style="rounded=1;whiteSpace=wrap;html=1;fillColor=#fff2cc;strokeColor=#d6b656;" vertex="1" parent="dnIXW3eOcuRQ0wwghWKn-1">
          <mxGeometry x="340.00000000000017" y="1280" width="40" height="40" as="geometry" />
        </mxCell>
        <mxCell id="dnIXW3eOcuRQ0wwghWKn-102" style="edgeStyle=orthogonalEdgeStyle;rounded=1;orthogonalLoop=1;jettySize=auto;html=1;entryX=0;entryY=0.5;entryDx=0;entryDy=0;dashed=1;dashPattern=1 2;" edge="1" parent="dnIXW3eOcuRQ0wwghWKn-1" source="dnIXW3eOcuRQ0wwghWKn-103" target="dnIXW3eOcuRQ0wwghWKn-104">
          <mxGeometry relative="1" as="geometry" />
        </mxCell>
        <mxCell id="dnIXW3eOcuRQ0wwghWKn-103" value="BlockOf&lt;br&gt;x0toN" style="ellipse;whiteSpace=wrap;html=1;fillColor=#b0e3e6;strokeColor=#0e8088;" vertex="1" parent="dnIXW3eOcuRQ0wwghWKn-1">
          <mxGeometry x="800" y="1280" width="80" height="40" as="geometry" />
        </mxCell>
        <mxCell id="dnIXW3eOcuRQ0wwghWKn-104" value="" style="ellipse;whiteSpace=wrap;html=1;dashed=1;" vertex="1" parent="dnIXW3eOcuRQ0wwghWKn-1">
          <mxGeometry x="920" y="1280" width="80" height="40" as="geometry" />
        </mxCell>
        <mxCell id="dnIXW3eOcuRQ0wwghWKn-105" style="edgeStyle=orthogonalEdgeStyle;rounded=1;orthogonalLoop=1;jettySize=auto;html=1;entryX=0.5;entryY=1;entryDx=0;entryDy=0;" edge="1" parent="dnIXW3eOcuRQ0wwghWKn-1" source="dnIXW3eOcuRQ0wwghWKn-108" target="dnIXW3eOcuRQ0wwghWKn-86">
          <mxGeometry relative="1" as="geometry" />
        </mxCell>
        <mxCell id="dnIXW3eOcuRQ0wwghWKn-106" style="edgeStyle=orthogonalEdgeStyle;rounded=1;orthogonalLoop=1;jettySize=auto;html=1;entryX=0.5;entryY=1;entryDx=0;entryDy=0;exitX=1;exitY=0.5;exitDx=0;exitDy=0;" edge="1" parent="dnIXW3eOcuRQ0wwghWKn-1" source="j-pP6FXgSQuO6MYBFhGC-12" target="dnIXW3eOcuRQ0wwghWKn-46">
          <mxGeometry relative="1" as="geometry" />
        </mxCell>
        <mxCell id="dnIXW3eOcuRQ0wwghWKn-107" style="edgeStyle=orthogonalEdgeStyle;rounded=1;orthogonalLoop=1;jettySize=auto;html=1;entryX=0;entryY=0.5;entryDx=0;entryDy=0;dashed=1;dashPattern=1 2;" edge="1" parent="dnIXW3eOcuRQ0wwghWKn-1" source="dnIXW3eOcuRQ0wwghWKn-108" target="dnIXW3eOcuRQ0wwghWKn-110">
          <mxGeometry relative="1" as="geometry" />
        </mxCell>
        <mxCell id="j-pP6FXgSQuO6MYBFhGC-18" style="edgeStyle=orthogonalEdgeStyle;rounded=1;orthogonalLoop=1;jettySize=auto;html=1;entryX=0.5;entryY=1;entryDx=0;entryDy=0;" edge="1" parent="dnIXW3eOcuRQ0wwghWKn-1" source="dnIXW3eOcuRQ0wwghWKn-108" target="j-pP6FXgSQuO6MYBFhGC-12">
          <mxGeometry relative="1" as="geometry" />
        </mxCell>
        <mxCell id="dnIXW3eOcuRQ0wwghWKn-108" value="" style="rounded=0;whiteSpace=wrap;html=1;fillColor=#dae8fc;strokeColor=#6c8ebf;" vertex="1" parent="dnIXW3eOcuRQ0wwghWKn-1">
          <mxGeometry x="189.99999999999994" y="1770" width="20" height="20" as="geometry" />
        </mxCell>
        <mxCell id="dnIXW3eOcuRQ0wwghWKn-109" style="edgeStyle=orthogonalEdgeStyle;rounded=1;orthogonalLoop=1;jettySize=auto;html=1;entryX=0;entryY=0.5;entryDx=0;entryDy=0;dashed=1;dashPattern=1 2;" edge="1" parent="dnIXW3eOcuRQ0wwghWKn-1" source="dnIXW3eOcuRQ0wwghWKn-110" target="dnIXW3eOcuRQ0wwghWKn-112">
          <mxGeometry relative="1" as="geometry" />
        </mxCell>
        <mxCell id="dnIXW3eOcuRQ0wwghWKn-110" value="BlockOf&lt;br&gt;x0toN" style="ellipse;whiteSpace=wrap;html=1;fillColor=#b0e3e6;strokeColor=#0e8088;" vertex="1" parent="dnIXW3eOcuRQ0wwghWKn-1">
          <mxGeometry x="800.0000000000001" y="1760" width="80" height="40" as="geometry" />
        </mxCell>
        <mxCell id="dnIXW3eOcuRQ0wwghWKn-111" style="edgeStyle=orthogonalEdgeStyle;rounded=0;orthogonalLoop=1;jettySize=auto;html=1;entryX=0;entryY=0.5;entryDx=0;entryDy=0;dashed=1;dashPattern=1 2;" edge="1" parent="dnIXW3eOcuRQ0wwghWKn-1" source="dnIXW3eOcuRQ0wwghWKn-112" target="dnIXW3eOcuRQ0wwghWKn-113">
          <mxGeometry relative="1" as="geometry" />
        </mxCell>
        <mxCell id="dnIXW3eOcuRQ0wwghWKn-112" value="TupleOf&lt;br&gt;[:y]" style="ellipse;whiteSpace=wrap;html=1;fillColor=#b0e3e6;strokeColor=#0e8088;" vertex="1" parent="dnIXW3eOcuRQ0wwghWKn-1">
          <mxGeometry x="920" y="1760" width="80" height="40" as="geometry" />
        </mxCell>
        <mxCell id="dnIXW3eOcuRQ0wwghWKn-113" value="Int" style="ellipse;whiteSpace=wrap;html=1;fillColor=#f5f5f5;strokeColor=#666666;fontColor=#333333;" vertex="1" parent="dnIXW3eOcuRQ0wwghWKn-1">
          <mxGeometry x="1040" y="1760" width="80" height="40" as="geometry" />
        </mxCell>
        <mxCell id="dnIXW3eOcuRQ0wwghWKn-121" style="edgeStyle=orthogonalEdgeStyle;rounded=1;orthogonalLoop=1;jettySize=auto;html=1;entryX=0.5;entryY=1;entryDx=0;entryDy=0;" edge="1" parent="dnIXW3eOcuRQ0wwghWKn-1" source="dnIXW3eOcuRQ0wwghWKn-114" target="dnIXW3eOcuRQ0wwghWKn-15">
          <mxGeometry relative="1" as="geometry">
            <Array as="points">
              <mxPoint x="440" y="460" />
              <mxPoint x="360" y="460" />
            </Array>
          </mxGeometry>
        </mxCell>
        <mxCell id="WFrBNLXj4VDlqP8gWLzi-16" style="edgeStyle=orthogonalEdgeStyle;rounded=1;orthogonalLoop=1;jettySize=auto;html=1;entryX=0;entryY=0.5;entryDx=0;entryDy=0;dashed=1;dashPattern=1 2;" edge="1" parent="dnIXW3eOcuRQ0wwghWKn-1" source="dnIXW3eOcuRQ0wwghWKn-114" target="WFrBNLXj4VDlqP8gWLzi-0">
          <mxGeometry relative="1" as="geometry" />
        </mxCell>
        <mxCell id="dnIXW3eOcuRQ0wwghWKn-114" value="head" style="rounded=1;whiteSpace=wrap;html=1;fillColor=#fff2cc;strokeColor=#d6b656;" vertex="1" parent="dnIXW3eOcuRQ0wwghWKn-1">
          <mxGeometry x="420.0000000000002" y="560" width="40" height="40" as="geometry" />
        </mxCell>
        <mxCell id="dnIXW3eOcuRQ0wwghWKn-122" style="edgeStyle=orthogonalEdgeStyle;rounded=1;orthogonalLoop=1;jettySize=auto;html=1;entryX=0.5;entryY=1;entryDx=0;entryDy=0;" edge="1" parent="dnIXW3eOcuRQ0wwghWKn-1" source="dnIXW3eOcuRQ0wwghWKn-115" target="dnIXW3eOcuRQ0wwghWKn-15">
          <mxGeometry relative="1" as="geometry">
            <mxPoint x="490" y="490" as="targetPoint" />
            <Array as="points">
              <mxPoint x="520" y="460" />
              <mxPoint x="360" y="460" />
            </Array>
          </mxGeometry>
        </mxCell>
        <mxCell id="dnIXW3eOcuRQ0wwghWKn-115" value="1" style="rounded=1;whiteSpace=wrap;html=1;fillColor=#fff2cc;strokeColor=#d6b656;" vertex="1" parent="dnIXW3eOcuRQ0wwghWKn-1">
          <mxGeometry x="500.0000000000002" y="640" width="40" height="40" as="geometry" />
        </mxCell>
        <mxCell id="dnIXW3eOcuRQ0wwghWKn-116" style="edgeStyle=orthogonalEdgeStyle;rounded=1;orthogonalLoop=1;jettySize=auto;html=1;entryX=0.5;entryY=1;entryDx=0;entryDy=0;" edge="1" parent="dnIXW3eOcuRQ0wwghWKn-1" source="dnIXW3eOcuRQ0wwghWKn-117" target="dnIXW3eOcuRQ0wwghWKn-114">
          <mxGeometry relative="1" as="geometry" />
        </mxCell>
        <mxCell id="dnIXW3eOcuRQ0wwghWKn-117" value="column(1)" style="rounded=1;whiteSpace=wrap;html=1;fillColor=#d5e8d4;strokeColor=#82b366;" vertex="1" parent="dnIXW3eOcuRQ0wwghWKn-1">
          <mxGeometry x="400" y="720" width="80" height="40" as="geometry" />
        </mxCell>
        <mxCell id="dnIXW3eOcuRQ0wwghWKn-118" style="edgeStyle=orthogonalEdgeStyle;rounded=1;orthogonalLoop=1;jettySize=auto;html=1;entryX=0.5;entryY=1;entryDx=0;entryDy=0;" edge="1" parent="dnIXW3eOcuRQ0wwghWKn-1" source="dnIXW3eOcuRQ0wwghWKn-120" target="dnIXW3eOcuRQ0wwghWKn-117">
          <mxGeometry relative="1" as="geometry" />
        </mxCell>
        <mxCell id="dnIXW3eOcuRQ0wwghWKn-119" style="edgeStyle=orthogonalEdgeStyle;rounded=1;orthogonalLoop=1;jettySize=auto;html=1;entryX=0.5;entryY=1;entryDx=0;entryDy=0;" edge="1" parent="dnIXW3eOcuRQ0wwghWKn-1" source="dnIXW3eOcuRQ0wwghWKn-120" target="dnIXW3eOcuRQ0wwghWKn-115">
          <mxGeometry relative="1" as="geometry" />
        </mxCell>
        <mxCell id="dnIXW3eOcuRQ0wwghWKn-120" value="" style="ellipse;whiteSpace=wrap;html=1;aspect=fixed;rounded=1;shadow=0;glass=0;sketch=0;align=left;fillColor=#dae8fc;strokeColor=#6c8ebf;" vertex="1" parent="dnIXW3eOcuRQ0wwghWKn-1">
          <mxGeometry x="429.9999999999998" y="810" width="20" height="20" as="geometry" />
        </mxCell>
        <mxCell id="WFrBNLXj4VDlqP8gWLzi-0" value="TupleOf&lt;br&gt;[:x]" style="ellipse;whiteSpace=wrap;html=1;fillColor=#b0e3e6;strokeColor=#0e8088;" vertex="1" parent="dnIXW3eOcuRQ0wwghWKn-1">
          <mxGeometry x="800.0000000000001" y="560" width="80" height="40" as="geometry" />
        </mxCell>
        <mxCell id="WFrBNLXj4VDlqP8gWLzi-1" style="edgeStyle=orthogonalEdgeStyle;rounded=0;orthogonalLoop=1;jettySize=auto;html=1;entryX=0;entryY=0.5;entryDx=0;entryDy=0;dashed=1;dashPattern=1 2;exitX=1;exitY=0.5;exitDx=0;exitDy=0;" edge="1" parent="dnIXW3eOcuRQ0wwghWKn-1" target="WFrBNLXj4VDlqP8gWLzi-3" source="dnIXW3eOcuRQ0wwghWKn-115">
          <mxGeometry relative="1" as="geometry">
            <mxPoint x="840" y="660" as="sourcePoint" />
          </mxGeometry>
        </mxCell>
        <mxCell id="WFrBNLXj4VDlqP8gWLzi-2" style="edgeStyle=orthogonalEdgeStyle;rounded=0;orthogonalLoop=1;jettySize=auto;html=1;entryX=0;entryY=0.5;entryDx=0;entryDy=0;dashed=1;dashPattern=1 2;" edge="1" parent="dnIXW3eOcuRQ0wwghWKn-1" source="WFrBNLXj4VDlqP8gWLzi-3" target="WFrBNLXj4VDlqP8gWLzi-5">
          <mxGeometry relative="1" as="geometry" />
        </mxCell>
        <mxCell id="WFrBNLXj4VDlqP8gWLzi-3" value="BlockOf&lt;br&gt;x0toN" style="ellipse;whiteSpace=wrap;html=1;fillColor=#b0e3e6;strokeColor=#0e8088;" vertex="1" parent="dnIXW3eOcuRQ0wwghWKn-1">
          <mxGeometry x="800" y="640" width="80" height="40" as="geometry" />
        </mxCell>
        <mxCell id="WFrBNLXj4VDlqP8gWLzi-4" style="edgeStyle=orthogonalEdgeStyle;rounded=0;orthogonalLoop=1;jettySize=auto;html=1;entryX=0;entryY=0.5;entryDx=0;entryDy=0;dashed=1;dashPattern=1 2;" edge="1" parent="dnIXW3eOcuRQ0wwghWKn-1" source="WFrBNLXj4VDlqP8gWLzi-5" target="WFrBNLXj4VDlqP8gWLzi-6">
          <mxGeometry relative="1" as="geometry" />
        </mxCell>
        <mxCell id="WFrBNLXj4VDlqP8gWLzi-5" value="TupleOf&lt;br&gt;[:y]" style="ellipse;whiteSpace=wrap;html=1;fillColor=#b0e3e6;strokeColor=#0e8088;" vertex="1" parent="dnIXW3eOcuRQ0wwghWKn-1">
          <mxGeometry x="920" y="640" width="80" height="40" as="geometry" />
        </mxCell>
        <mxCell id="WFrBNLXj4VDlqP8gWLzi-6" value="Int" style="ellipse;whiteSpace=wrap;html=1;fillColor=#f5f5f5;strokeColor=#666666;fontColor=#333333;" vertex="1" parent="dnIXW3eOcuRQ0wwghWKn-1">
          <mxGeometry x="1040" y="640" width="80" height="40" as="geometry" />
        </mxCell>
        <mxCell id="WFrBNLXj4VDlqP8gWLzi-8" style="edgeStyle=orthogonalEdgeStyle;rounded=1;orthogonalLoop=1;jettySize=auto;html=1;entryX=0;entryY=0.5;entryDx=0;entryDy=0;dashed=1;dashPattern=1 2;exitX=1;exitY=0.5;exitDx=0;exitDy=0;" edge="1" parent="dnIXW3eOcuRQ0wwghWKn-1" target="WFrBNLXj4VDlqP8gWLzi-9" source="dnIXW3eOcuRQ0wwghWKn-117">
          <mxGeometry relative="1" as="geometry">
            <mxPoint x="500" y="740" as="sourcePoint" />
          </mxGeometry>
        </mxCell>
        <mxCell id="WFrBNLXj4VDlqP8gWLzi-9" value="" style="ellipse;whiteSpace=wrap;html=1;dashed=1;" vertex="1" parent="dnIXW3eOcuRQ0wwghWKn-1">
          <mxGeometry x="800" y="720" width="80" height="40" as="geometry" />
        </mxCell>
        <mxCell id="WFrBNLXj4VDlqP8gWLzi-10" style="edgeStyle=orthogonalEdgeStyle;rounded=0;orthogonalLoop=1;jettySize=auto;html=1;entryX=0;entryY=0.5;entryDx=0;entryDy=0;dashed=1;dashPattern=1 2;exitX=1;exitY=0.5;exitDx=0;exitDy=0;" edge="1" parent="dnIXW3eOcuRQ0wwghWKn-1" target="WFrBNLXj4VDlqP8gWLzi-12" source="dnIXW3eOcuRQ0wwghWKn-120">
          <mxGeometry relative="1" as="geometry">
            <mxPoint x="840" y="820" as="sourcePoint" />
          </mxGeometry>
        </mxCell>
        <mxCell id="WFrBNLXj4VDlqP8gWLzi-11" style="edgeStyle=orthogonalEdgeStyle;rounded=0;orthogonalLoop=1;jettySize=auto;html=1;entryX=0;entryY=0.5;entryDx=0;entryDy=0;dashed=1;dashPattern=1 2;" edge="1" parent="dnIXW3eOcuRQ0wwghWKn-1" source="WFrBNLXj4VDlqP8gWLzi-12" target="WFrBNLXj4VDlqP8gWLzi-14">
          <mxGeometry relative="1" as="geometry" />
        </mxCell>
        <mxCell id="WFrBNLXj4VDlqP8gWLzi-12" value="BlockOf&lt;br&gt;x0toN" style="ellipse;whiteSpace=wrap;html=1;fillColor=#b0e3e6;strokeColor=#0e8088;" vertex="1" parent="dnIXW3eOcuRQ0wwghWKn-1">
          <mxGeometry x="800" y="800" width="80" height="40" as="geometry" />
        </mxCell>
        <mxCell id="WFrBNLXj4VDlqP8gWLzi-13" style="edgeStyle=orthogonalEdgeStyle;rounded=0;orthogonalLoop=1;jettySize=auto;html=1;entryX=0;entryY=0.5;entryDx=0;entryDy=0;dashed=1;dashPattern=1 2;" edge="1" parent="dnIXW3eOcuRQ0wwghWKn-1" source="WFrBNLXj4VDlqP8gWLzi-14" target="WFrBNLXj4VDlqP8gWLzi-15">
          <mxGeometry relative="1" as="geometry" />
        </mxCell>
        <mxCell id="WFrBNLXj4VDlqP8gWLzi-14" value="TupleOf&lt;br&gt;[:y]" style="ellipse;whiteSpace=wrap;html=1;fillColor=#b0e3e6;strokeColor=#0e8088;" vertex="1" parent="dnIXW3eOcuRQ0wwghWKn-1">
          <mxGeometry x="920" y="800" width="80" height="40" as="geometry" />
        </mxCell>
        <mxCell id="WFrBNLXj4VDlqP8gWLzi-15" value="Int" style="ellipse;whiteSpace=wrap;html=1;fillColor=#f5f5f5;strokeColor=#666666;fontColor=#333333;" vertex="1" parent="dnIXW3eOcuRQ0wwghWKn-1">
          <mxGeometry x="1040" y="800" width="80" height="40" as="geometry" />
        </mxCell>
        <mxCell id="WFrBNLXj4VDlqP8gWLzi-17" style="edgeStyle=orthogonalEdgeStyle;rounded=0;orthogonalLoop=1;jettySize=auto;html=1;entryX=0;entryY=0.5;entryDx=0;entryDy=0;dashed=1;dashPattern=1 2;exitX=1;exitY=0.5;exitDx=0;exitDy=0;" edge="1" parent="dnIXW3eOcuRQ0wwghWKn-1" target="WFrBNLXj4VDlqP8gWLzi-18" source="WFrBNLXj4VDlqP8gWLzi-0">
          <mxGeometry relative="1" as="geometry">
            <mxPoint x="880" y="580" as="sourcePoint" />
          </mxGeometry>
        </mxCell>
        <mxCell id="WFrBNLXj4VDlqP8gWLzi-18" value="" style="ellipse;whiteSpace=wrap;html=1;dashed=1;" vertex="1" parent="dnIXW3eOcuRQ0wwghWKn-1">
          <mxGeometry x="920" y="560" width="80" height="40" as="geometry" />
        </mxCell>
        <mxCell id="j-pP6FXgSQuO6MYBFhGC-1" style="edgeStyle=orthogonalEdgeStyle;rounded=1;orthogonalLoop=1;jettySize=auto;html=1;entryX=0.5;entryY=1;entryDx=0;entryDy=0;" edge="1" parent="dnIXW3eOcuRQ0wwghWKn-1" source="j-pP6FXgSQuO6MYBFhGC-0" target="dnIXW3eOcuRQ0wwghWKn-76">
          <mxGeometry relative="1" as="geometry">
            <Array as="points">
              <mxPoint x="440" y="1260" />
              <mxPoint x="360" y="1260" />
            </Array>
          </mxGeometry>
        </mxCell>
        <mxCell id="j-pP6FXgSQuO6MYBFhGC-0" value="1" style="rounded=1;whiteSpace=wrap;html=1;fillColor=#fff2cc;strokeColor=#d6b656;" vertex="1" parent="dnIXW3eOcuRQ0wwghWKn-1">
          <mxGeometry x="420.00000000000017" y="1360" width="40" height="40" as="geometry" />
        </mxCell>
        <mxCell id="j-pP6FXgSQuO6MYBFhGC-2" style="edgeStyle=orthogonalEdgeStyle;rounded=1;orthogonalLoop=1;jettySize=auto;html=1;entryX=0;entryY=0.5;entryDx=0;entryDy=0;dashed=1;dashPattern=1 2;exitX=1;exitY=0.5;exitDx=0;exitDy=0;" edge="1" parent="dnIXW3eOcuRQ0wwghWKn-1" target="j-pP6FXgSQuO6MYBFhGC-5" source="j-pP6FXgSQuO6MYBFhGC-0">
          <mxGeometry relative="1" as="geometry">
            <mxPoint x="760" y="1380" as="sourcePoint" />
          </mxGeometry>
        </mxCell>
        <mxCell id="j-pP6FXgSQuO6MYBFhGC-3" style="edgeStyle=orthogonalEdgeStyle;rounded=1;orthogonalLoop=1;jettySize=auto;html=1;entryX=0;entryY=0.5;entryDx=0;entryDy=0;dashed=1;dashPattern=1 2;" edge="1" parent="dnIXW3eOcuRQ0wwghWKn-1" source="j-pP6FXgSQuO6MYBFhGC-5" target="j-pP6FXgSQuO6MYBFhGC-7">
          <mxGeometry relative="1" as="geometry" />
        </mxCell>
        <mxCell id="j-pP6FXgSQuO6MYBFhGC-4" style="edgeStyle=orthogonalEdgeStyle;rounded=1;orthogonalLoop=1;jettySize=auto;html=1;entryX=0;entryY=0.5;entryDx=0;entryDy=0;dashed=1;dashPattern=1 2;" edge="1" parent="dnIXW3eOcuRQ0wwghWKn-1" source="j-pP6FXgSQuO6MYBFhGC-5" target="j-pP6FXgSQuO6MYBFhGC-6">
          <mxGeometry relative="1" as="geometry" />
        </mxCell>
        <mxCell id="j-pP6FXgSQuO6MYBFhGC-5" value="TupleOf" style="ellipse;whiteSpace=wrap;html=1;fillColor=#b0e3e6;strokeColor=#0e8088;" vertex="1" parent="dnIXW3eOcuRQ0wwghWKn-1">
          <mxGeometry x="800" y="1360" width="80" height="40" as="geometry" />
        </mxCell>
        <mxCell id="j-pP6FXgSQuO6MYBFhGC-6" value="" style="ellipse;whiteSpace=wrap;html=1;dashed=1;" vertex="1" parent="dnIXW3eOcuRQ0wwghWKn-1">
          <mxGeometry x="920" y="1370" width="80" height="40" as="geometry" />
        </mxCell>
        <mxCell id="j-pP6FXgSQuO6MYBFhGC-7" value="" style="ellipse;whiteSpace=wrap;html=1;dashed=1;" vertex="1" parent="dnIXW3eOcuRQ0wwghWKn-1">
          <mxGeometry x="920" y="1350" width="80" height="40" as="geometry" />
        </mxCell>
        <mxCell id="j-pP6FXgSQuO6MYBFhGC-11" style="edgeStyle=orthogonalEdgeStyle;rounded=1;orthogonalLoop=1;jettySize=auto;html=1;entryX=0.5;entryY=1;entryDx=0;entryDy=0;" edge="1" parent="dnIXW3eOcuRQ0wwghWKn-1" source="j-pP6FXgSQuO6MYBFhGC-8" target="j-pP6FXgSQuO6MYBFhGC-0">
          <mxGeometry relative="1" as="geometry" />
        </mxCell>
        <mxCell id="j-pP6FXgSQuO6MYBFhGC-8" value="column(1)" style="rounded=1;whiteSpace=wrap;html=1;fillColor=#d5e8d4;strokeColor=#82b366;" vertex="1" parent="dnIXW3eOcuRQ0wwghWKn-1">
          <mxGeometry x="400" y="1440" width="80" height="40" as="geometry" />
        </mxCell>
        <mxCell id="j-pP6FXgSQuO6MYBFhGC-9" style="edgeStyle=orthogonalEdgeStyle;rounded=1;orthogonalLoop=1;jettySize=auto;html=1;entryX=0;entryY=0.5;entryDx=0;entryDy=0;dashed=1;dashPattern=1 2;exitX=1;exitY=0.5;exitDx=0;exitDy=0;" edge="1" parent="dnIXW3eOcuRQ0wwghWKn-1" source="j-pP6FXgSQuO6MYBFhGC-8" target="j-pP6FXgSQuO6MYBFhGC-10">
          <mxGeometry relative="1" as="geometry">
            <mxPoint x="500" y="1460" as="sourcePoint" />
          </mxGeometry>
        </mxCell>
        <mxCell id="j-pP6FXgSQuO6MYBFhGC-10" value="" style="ellipse;whiteSpace=wrap;html=1;dashed=1;" vertex="1" parent="dnIXW3eOcuRQ0wwghWKn-1">
          <mxGeometry x="800" y="1440" width="80" height="40" as="geometry" />
        </mxCell>
        <mxCell id="j-pP6FXgSQuO6MYBFhGC-13" style="edgeStyle=orthogonalEdgeStyle;rounded=1;orthogonalLoop=1;jettySize=auto;html=1;entryX=0.5;entryY=1;entryDx=0;entryDy=0;" edge="1" parent="dnIXW3eOcuRQ0wwghWKn-1" source="j-pP6FXgSQuO6MYBFhGC-12" target="j-pP6FXgSQuO6MYBFhGC-8">
          <mxGeometry relative="1" as="geometry" />
        </mxCell>
        <mxCell id="j-pP6FXgSQuO6MYBFhGC-12" value="" style="ellipse;whiteSpace=wrap;html=1;aspect=fixed;rounded=1;shadow=0;glass=0;sketch=0;align=left;fillColor=#dae8fc;strokeColor=#6c8ebf;" vertex="1" parent="dnIXW3eOcuRQ0wwghWKn-1">
          <mxGeometry x="429.9999999999998" y="1530" width="20" height="20" as="geometry" />
        </mxCell>
        <mxCell id="j-pP6FXgSQuO6MYBFhGC-14" style="edgeStyle=orthogonalEdgeStyle;rounded=1;orthogonalLoop=1;jettySize=auto;html=1;entryX=0;entryY=0.5;entryDx=0;entryDy=0;dashed=1;dashPattern=1 2;exitX=1;exitY=0.5;exitDx=0;exitDy=0;" edge="1" parent="dnIXW3eOcuRQ0wwghWKn-1" target="j-pP6FXgSQuO6MYBFhGC-16" source="j-pP6FXgSQuO6MYBFhGC-12">
          <mxGeometry relative="1" as="geometry">
            <mxPoint x="540" y="1540" as="sourcePoint" />
          </mxGeometry>
        </mxCell>
        <mxCell id="j-pP6FXgSQuO6MYBFhGC-15" style="edgeStyle=orthogonalEdgeStyle;rounded=0;orthogonalLoop=1;jettySize=auto;html=1;entryX=0;entryY=0.5;entryDx=0;entryDy=0;dashed=1;dashPattern=1 2;" edge="1" parent="dnIXW3eOcuRQ0wwghWKn-1" source="j-pP6FXgSQuO6MYBFhGC-16" target="j-pP6FXgSQuO6MYBFhGC-17">
          <mxGeometry relative="1" as="geometry" />
        </mxCell>
        <mxCell id="j-pP6FXgSQuO6MYBFhGC-16" value="TupleOf&lt;br&gt;[:y]" style="ellipse;whiteSpace=wrap;html=1;fillColor=#b0e3e6;strokeColor=#0e8088;" vertex="1" parent="dnIXW3eOcuRQ0wwghWKn-1">
          <mxGeometry x="800" y="1520" width="80" height="40" as="geometry" />
        </mxCell>
        <mxCell id="j-pP6FXgSQuO6MYBFhGC-17" value="Int" style="ellipse;whiteSpace=wrap;html=1;fillColor=#f5f5f5;strokeColor=#666666;fontColor=#333333;" vertex="1" parent="dnIXW3eOcuRQ0wwghWKn-1">
          <mxGeometry x="920" y="1520" width="80" height="40" as="geometry" />
        </mxCell>
      </root>
    </mxGraphModel>
  </diagram>
</mxfile>
